<svg id="Capa_1" data-name="Capa 1" xmlns="http://www.w3.org/2000/svg" viewBox="0 0 1366 768"><defs><style>.cls-1,.cls-11,.cls-15,.cls-23{fill:#0b2a4d;}.cls-2,.cls-9{fill:#fff;}.cls-19,.cls-3{fill:#989898;}.cls-13,.cls-16,.cls-4{fill:#e4e4e4;}.cls-10,.cls-17,.cls-5{fill:#cacaca;}.cls-14,.cls-22,.cls-6{fill:#a61714;}.cls-7{fill:#676767;}.cls-21,.cls-8{fill:#d8e1e6;}.cls-12,.cls-13,.cls-14,.cls-15,.cls-17,.cls-9{opacity:0.22;}.cls-10,.cls-11,.cls-16,.cls-18,.cls-19,.cls-21,.cls-22{opacity:0.53;}.cls-12,.cls-18,.cls-20{fill:#f7f7f7;}.cls-23{opacity:0.38;}</style></defs><path class="cls-1" d="M847.75,0h55.8c-.23,1.67.77,2.93,1.52,4.22C908.5,10.19,912,16.08,915.49,22c4.25,7.22,8.52,14.43,12.74,21.67a7.84,7.84,0,0,1,1.51,3.57l-43.64.06c-3.61,0-7.21,0-10.82.05-6.23,0-12.46-.07-18.69-.07q-17.55,0-35.09,0l-.63-.65c.25-.35.53-.68.75-1Q834.39,23.78,847.13,2A7.18,7.18,0,0,0,847.6.76Z"/><path class="cls-1" d="M409.28,0h54.48l0,1.23C460.8,6.34,457.9,11.44,455,16.5q-8.79,15.08-17.62,30.11c-1.14.9-2.49.68-3.78.68H385.37c-1.09,0-2.18,0-3.28-.08L382,46a1.85,1.85,0,0,0,1.55-1c1.2-2,2.41-3.89,3.55-5.86,3.55-6.12,7-12.27,10.6-18.38,3.39-5.83,6.86-11.61,10.26-17.43A7.58,7.58,0,0,0,409.28,0Z"/><path class="cls-2" d="M299,47.29V0h55.14c0,.42,0,.83,0,1.25-.52,1-1,1.93-1.56,2.87L327.81,46.6a.79.79,0,0,0-.59.67l-26.88.06Z"/><path class="cls-3" d="M629.17,0l-.83.65c-1.1,0-2.19,0-3.28,0H578.83c-1,0-2,0-3,0s-1.14.5-.77,1.32a25.53,25.53,0,0,0,1.19,2.33c2,3.39,4,6.75,6,10.14,2.63,4.53,5.23,9.07,7.86,13.6q4.27,7.35,8.61,14.67c.82,1.38,1.37,3,2.89,3.86-.24.19-.48.5-.75.53a19.23,19.23,0,0,1-2.28.08H550.41c-.88,0-1.75,0-2.62-.09-.65-.06-.8-.64-.93-1.18.73-.19,1-.84,1.29-1.39,1.94-3.28,3.89-6.55,5.82-9.84q3.63-6.19,7.24-12.41c2.8-4.8,5.68-9.54,8.37-14.4,1.31-2.37,3-4.52,3.81-7.18A1,1,0,0,0,574,0Z"/><path class="cls-4" d="M766.36,46.64a1.72,1.72,0,0,1-1.5-1c-2.14-3.67-4.31-7.32-6.46-11q-5.46-9.28-10.92-18.57Q743.7,9.57,740,3a6.68,6.68,0,0,1-1.21-3h53.83a15.82,15.82,0,0,1-1,3.1c-1.58,2.85-3.3,5.63-5,8.45q-3.82,6.48-7.61,13-3.13,5.36-6.23,10.74C770.66,39.06,768.52,42.86,766.36,46.64Z"/><path class="cls-5" d="M409.28,0a7.58,7.58,0,0,1-1.36,3.3c-3.4,5.82-6.87,11.6-10.26,17.43-3.56,6.11-7.05,12.26-10.6,18.38-1.14,2-2.35,3.91-3.55,5.86A1.85,1.85,0,0,1,382,46c-.89-.21-1-1.06-1.41-1.69Q370.38,27,360.27,9.58A70.55,70.55,0,0,1,355.38.73l.73-.7Z"/><path class="cls-4" d="M683,0a5.9,5.9,0,0,1-1.22,3.67c-2.48,4.23-5,8.43-7.5,12.66-2,3.48-4,7-6,10.5-2.53,4.33-5.06,8.67-7.66,13-1.07,1.77-1.79,3.75-3.14,5.36-.83,1-1.68,1-2.37,0-1.05-1.65-2-3.38-2.94-5.06-2.38-4-4.8-8-7.15-12.08s-4.61-8.12-7-12.15c-2-3.39-4.06-6.7-6-10.12-1-1.79-2.35-3.48-2.26-5.71Z"/><path class="cls-4" d="M518.24,0a4.92,4.92,0,0,1-.87,3.09c-1.35,2.47-2.71,5-4.11,7.4-2.16,3.76-4.35,7.5-6.54,11.24L499.3,34.38c-1.87,3.18-3.76,6.35-5.6,9.54a6.26,6.26,0,0,0-1.08,2.7l-1.15.81-.16-.15c.08-1.43-.89-2.42-1.53-3.52Q478.05,23.57,466.26,3.42c-.49-.84-.85-1.75-1.27-2.63.07-.09.15-.18.22-.28l.52-.48Z"/><path class="cls-5" d="M929.74,47.23a7.84,7.84,0,0,0-1.51-3.57C924,36.42,919.74,29.21,915.49,22c-3.48-5.91-7-11.8-10.42-17.74C904.32,3,903.32,1.7,903.55,0h53.17c.18,2.26-1.25,3.92-2.26,5.68-3.39,6-6.92,11.84-10.4,17.75-3.59,6.11-7.2,12.19-10.75,18.32-1,1.78-1.9,3.65-2.84,5.48a.55.55,0,0,1-.35.33Z"/><path class="cls-1" d="M930.47,47.26c.94-1.83,1.81-3.7,2.84-5.48,3.55-6.13,7.16-12.21,10.75-18.32,3.48-5.91,7-11.79,10.4-17.75,1-1.76,2.44-3.42,2.26-5.68H958c0,.24,0,.47.05.7.38.78.73,1.58,1.16,2.33Q965.57,14,971.93,24.83q5.77,9.89,11.56,19.76c.48.84,1.11,1.66.79,2.74-1.09,0-2.18-.06-3.28-.06Z"/><path class="cls-1" d="M573.39.8c-.77,2.66-2.5,4.81-3.81,7.18-2.69,4.86-5.57,9.6-8.37,14.4q-3.62,6.21-7.24,12.41c-1.93,3.29-3.88,6.56-5.82,9.84-.33.55-.56,1.2-1.29,1.39a1.49,1.49,0,0,1-1.24-.91c-1.06-1.77-2.19-3.51-3.23-5.3-2.68-4.61-5.32-9.24-8-13.86-2.85-4.89-5.73-9.76-8.6-14.64-1.38-2.35-2.8-4.67-4.12-7C520.94,3,519.91,1.71,520.21,0h53.17Z"/><path class="cls-1" d="M766.36,46.64c2.16-3.78,4.3-7.58,6.47-11.36q3.09-5.38,6.23-10.74,3.78-6.48,7.61-13c1.65-2.82,3.37-5.6,5-8.45a15.82,15.82,0,0,0,1-3.1h.65c.12.49.14,1,.65,1.32.69,1.24,1.36,2.49,2.07,3.72l22.6,38.75c.38.65.69,1.35,1,2-.25.45-.5.9-.76,1.35-1.2,0-2.4.07-3.6.07H774.57c-2.51,0-5-.05-7.54-.07l-.68-.57Z"/><path class="cls-1" d="M1040.12,47.25a58.36,58.36,0,0,1,4.08-7.44c4.92-8.47,9.93-16.9,14.89-25.35,2.31-3.94,4.6-7.91,6.87-11.87a6.18,6.18,0,0,0,.39-1.24h.64V47.29Z"/><path class="cls-3" d="M793.92,1.35c-.51-.29-.53-.83-.65-1.32h54.48l-.15.73q-25.64,0-51.27,0a8.66,8.66,0,0,0-1.62.1C794.42.89,794.18,1.17,793.92,1.35Z"/><path class="cls-4" d="M356.11,0l-.73.7-1.26.55,0-1.25Z"/><path class="cls-4" d="M463.73,1.26l0-1.23h1.31a1.9,1.9,0,0,0,.14.48c-.07.1-.15.19-.22.28Z"/><path class="cls-4" d="M1067,1.35h-.64c0-.44,0-.88,0-1.32.2.15.7-.33.66.33C1067,.69,1067,1,1067,1.35Z"/><path class="cls-4" d="M573.39.8V0H574A1,1,0,0,1,573.39.8Z"/><path class="cls-2" d="M465.21.51a1.9,1.9,0,0,1-.14-.48h.66Z"/><path class="cls-6" d="M601.65,46.68c-1.52-.87-2.07-2.48-2.89-3.86q-4.35-7.3-8.61-14.67c-2.63-4.53-5.23-9.07-7.86-13.6-2-3.39-4-6.75-6-10.14a25.53,25.53,0,0,1-1.19-2.33c-.37-.82-.11-1.28.77-1.32s2,0,3,0h46.23c1.09,0,2.18,0,3.28,0a9.18,9.18,0,0,1-.57,1.49Q615.11,23.91,602.4,45.62A11.25,11.25,0,0,1,601.65,46.68Z"/><path class="cls-4" d="M710.55,47.27c-2.84,0-5.68.06-8.53.06H660.35c-1.2,0-2.4,0-3.61-.07a3.79,3.79,0,0,1,1.12-.56,17.32,17.32,0,0,1,2.28-.06q23.5,0,47,0C708.3,46.66,709.57,46.23,710.55,47.27Z"/><path class="cls-4" d="M767,47.2l-.68.07v-.64Z"/><path class="cls-6" d="M820.87,46.66a1,1,0,0,0-.54-.08l-.71-.73c-.34-.68-.65-1.38-1-2L796,5.07c-.71-1.23-1.38-2.48-2.07-3.72.26-.18.5-.46.79-.52a8.66,8.66,0,0,1,1.62-.1q25.63,0,51.27,0A7.18,7.18,0,0,1,847.13,2Q834.4,23.79,821.62,45.61C821.4,46,821.12,46.31,820.87,46.66Z"/><path class="cls-1" d="M1039.42,47.29l-49.54,0c-.87,0-1.75,0-2.62,0-1.34,0-2.06-.2-1-2q5.12-8.78,10.22-17.57,7.2-12.32,14.4-24.63a5.44,5.44,0,0,0,1-2.39,4.15,4.15,0,0,1,2,2.07c2,3.39,4,6.75,6,10.15,2.63,4.52,5.22,9.08,7.85,13.61,3,5.09,6,10.16,8.92,15.26C1037.68,43.56,1039.08,45.17,1039.42,47.29Z"/><path class="cls-7" d="M382.09,47.21l-54.18,0a1,1,0,0,0-.1-.58L352.56,4.15c.54-.94,1-1.91,1.56-2.87l1.26-.55a70.55,70.55,0,0,0,4.89,8.85Q370.35,27,380.55,44.35c.37.63.52,1.48,1.41,1.69C382,46.43,382.05,46.82,382.09,47.21Z"/><path class="cls-6" d="M491.31,47.28l-47-.05h-5.55a1.48,1.48,0,0,1-1.41-.61q8.81-15,17.62-30.11c2.95-5.06,5.85-10.16,8.78-15.24L465,.79c.42.88.78,1.79,1.27,2.63Q478,23.6,489.78,43.76C490.42,44.86,491.39,45.85,491.31,47.28Z"/><path class="cls-4" d="M819.62,45.85l.71.73c-.28.69-.83.77-1.47.62C819.12,46.75,819.37,46.3,819.62,45.85Z"/><path class="cls-1" d="M29.05-.46H83.53l0,1.23C80.58,5.85,77.68,11,74.72,16Q65.95,31.08,57.11,46.12c-1.14.9-2.49.68-3.78.68H5.15c-1.09,0-2.19-.06-3.28-.08l-.13-1.17a1.85,1.85,0,0,0,1.55-1c1.19-1.94,2.41-3.88,3.55-5.85,3.54-6.12,7-12.27,10.59-18.38C20.83,14.44,24.3,8.66,27.7,2.84A7.56,7.56,0,0,0,29.05-.46Z"/><path class="cls-1" d="M249-.46l-.84.65c-1.09,0-2.18,0-3.27,0H198.6c-1,0-2,0-2.95,0s-1.14.5-.76,1.32a25.53,25.53,0,0,0,1.19,2.33c2,3.39,4,6.75,6,10.14,2.64,4.52,5.24,9.07,7.87,13.6,2.85,4.9,5.7,9.8,8.61,14.67.82,1.38,1.37,3,2.89,3.86-.25.19-.48.5-.75.53a19.32,19.32,0,0,1-2.29.08q-24.1,0-48.21,0c-.87,0-1.74,0-2.61-.09-.66-.06-.8-.64-.93-1.18.73-.19,1-.84,1.28-1.39,1.94-3.28,3.89-6.56,5.82-9.84,2.43-4.13,4.83-8.28,7.25-12.41,2.8-4.8,5.68-9.55,8.37-14.4,1.31-2.37,3-4.53,3.81-7.18a1,1,0,0,0,.64-.77Z"/><path class="cls-8" d="M386.14,46.15a1.75,1.75,0,0,1-1.51-1c-2.13-3.67-4.3-7.32-6.45-11-3.64-6.19-7.3-12.37-10.92-18.57q-3.78-6.48-7.49-13a6.83,6.83,0,0,1-1.2-3h53.82a16.17,16.17,0,0,1-1,3.09c-1.58,2.86-3.3,5.64-5,8.46q-3.81,6.48-7.61,13-3.12,5.36-6.22,10.74C390.44,38.57,388.3,42.36,386.14,46.15Z"/><path class="cls-8" d="M302.77-.46a5.83,5.83,0,0,1-1.21,3.67c-2.48,4.23-5,8.43-7.5,12.66-2,3.48-4,7-6,10.5-2.52,4.33-5,8.66-7.65,13-1.08,1.77-1.79,3.75-3.15,5.36-.83,1-1.68,1-2.36,0-1.05-1.65-2-3.38-2.95-5.07-2.37-4-4.79-8-7.14-12.07s-4.61-8.12-7-12.16c-2-3.38-4.06-6.69-5.95-10.11-1-1.79-2.35-3.48-2.26-5.71Z"/><path class="cls-4" d="M138-.46a5,5,0,0,1-.87,3.09c-1.36,2.47-2.71,5-4.11,7.39-2.16,3.77-4.35,7.51-6.54,11.25l-7.42,12.62c-1.87,3.18-3.76,6.35-5.6,9.54a6.4,6.4,0,0,0-1.09,2.7l-1.14.8-.16-.15c.07-1.42-.9-2.42-1.54-3.51Q97.82,23.08,86,2.93c-.49-.84-.86-1.75-1.28-2.63A3,3,0,0,0,85,0l.52-.48Z"/><path class="cls-5" d="M193.17.31c-.77,2.65-2.5,4.81-3.81,7.18-2.69,4.85-5.57,9.6-8.37,14.4-2.42,4.13-4.82,8.28-7.25,12.41-1.93,3.28-3.88,6.56-5.82,9.84-.33.55-.55,1.2-1.28,1.39a1.47,1.47,0,0,1-1.24-.91c-1.07-1.77-2.19-3.51-3.23-5.3-2.69-4.61-5.32-9.25-8-13.86-2.84-4.89-5.72-9.76-8.59-14.64-1.38-2.35-2.81-4.67-4.12-7-.73-1.31-1.76-2.55-1.46-4.23h53.16Z"/><path class="cls-4" d="M83.51.77l0-1.23h1.32A1.89,1.89,0,0,0,85,0a3,3,0,0,1-.22.28Z"/><path class="cls-4" d="M193.17.31l0-.77h.66A1,1,0,0,1,193.17.31Z"/><path class="cls-2" d="M85,0a1.89,1.89,0,0,1-.13-.48h.65Z"/><path class="cls-6" d="M221.43,46.19c-1.52-.87-2.07-2.48-2.89-3.86-2.91-4.87-5.76-9.77-8.61-14.67-2.63-4.53-5.23-9.08-7.87-13.6-2-3.39-4-6.75-6-10.14a25.53,25.53,0,0,1-1.19-2.33c-.38-.82-.11-1.28.76-1.32s2,0,2.95,0h46.24c1.09,0,2.18,0,3.27,0a9.15,9.15,0,0,1-.56,1.49q-12.68,21.74-25.37,43.45C222,45.5,221.68,45.84,221.43,46.19Z"/><path class="cls-4" d="M330.33,46.77c-2.84,0-5.69.06-8.53.07H280.13c-1.2,0-2.41-.05-3.61-.07a3.68,3.68,0,0,1,1.12-.56,17.32,17.32,0,0,1,2.28-.06q23.5,0,47,0C328.08,46.17,329.35,45.74,330.33,46.77Z"/><path class="cls-6" d="M111.09,46.78l-47,0H58.52a1.47,1.47,0,0,1-1.41-.61q8.8-15,17.61-30.11C77.68,11,80.58,5.85,83.51.77L84.76.3c.42.88.79,1.79,1.28,2.63q11.74,20.16,23.51,40.34C110.19,44.36,111.16,45.36,111.09,46.78Z"/><path class="cls-3" d="M1176.84,1.25l-.83.65c-1.1,0-2.19,0-3.28,0H1126.5c-1,0-2,0-3,0s-1.14.49-.77,1.31a25.79,25.79,0,0,0,1.2,2.34c2,3.38,4,6.75,6,10.14,2.63,4.52,5.23,9.07,7.86,13.59,2.86,4.9,5.71,9.81,8.61,14.67.83,1.38,1.38,3,2.9,3.87-.25.18-.49.5-.75.53a19.48,19.48,0,0,1-2.29.08h-48.21c-.87,0-1.75,0-2.62-.09-.65-.07-.8-.64-.93-1.18.73-.19,1-.84,1.29-1.4,1.94-3.27,3.89-6.55,5.82-9.83l7.24-12.41c2.8-4.8,5.69-9.55,8.37-14.4,1.32-2.37,3-4.53,3.82-7.18a1,1,0,0,0,.64-.77Z"/><path class="cls-4" d="M1230.67,1.25a5.92,5.92,0,0,1-1.22,3.67c-2.48,4.23-5,8.42-7.5,12.66-2,3.48-4,7-6,10.5-2.53,4.33-5,8.66-7.66,13-1.07,1.77-1.79,3.75-3.14,5.36-.83,1-1.68,1-2.37,0-1-1.64-2-3.38-2.94-5.06-2.38-4-4.8-8-7.15-12.07s-4.61-8.12-7-12.16c-2-3.38-4.06-6.69-6-10.12-1-1.78-2.34-3.47-2.26-5.7Z"/><path class="cls-5" d="M1121.07,2c-.77,2.65-2.5,4.81-3.82,7.18-2.68,4.85-5.57,9.6-8.37,14.4L1101.64,36c-1.93,3.28-3.88,6.56-5.82,9.83-.33.56-.56,1.21-1.29,1.4a1.49,1.49,0,0,1-1.24-.91c-1.06-1.78-2.19-3.51-3.23-5.3-2.68-4.61-5.32-9.25-8-13.86-2.85-4.89-5.73-9.77-8.6-14.65-1.37-2.34-2.8-4.66-4.12-7-.72-1.31-1.75-2.55-1.46-4.23h53.17Z"/><path class="cls-4" d="M1121.07,2l0-.77h.66A1,1,0,0,1,1121.07,2Z"/><path class="cls-6" d="M1149.33,47.9c-1.52-.87-2.07-2.49-2.9-3.87-2.9-4.86-5.75-9.77-8.61-14.67-2.63-4.52-5.23-9.07-7.86-13.59-2-3.39-4-6.76-6-10.14a25.79,25.79,0,0,1-1.2-2.34c-.37-.82-.11-1.27.77-1.31s2,0,3,0h46.23c1.09,0,2.18,0,3.28,0a9.43,9.43,0,0,1-.57,1.48q-12.66,21.75-25.37,43.46A12.6,12.6,0,0,1,1149.33,47.9Z"/><path class="cls-4" d="M1258.22,48.48c-2.84,0-5.68.06-8.52.06H1208c-1.2,0-2.4,0-3.6-.06a3.83,3.83,0,0,1,1.12-.57,19.19,19.19,0,0,1,2.28,0q23.51,0,47,0C1256,47.88,1257.24,47.45,1258.22,48.48Z"/><path class="cls-3" d="M765.73,47l-.84-.65c-1.09,0-2.18,0-3.27,0H715.38c-1,0-2,0-3,0s-1.14-.5-.76-1.32a25.53,25.53,0,0,1,1.19-2.33c2-3.39,4-6.75,6-10.14,2.64-4.52,5.24-9.07,7.87-13.59,2.85-4.9,5.7-9.81,8.61-14.68.82-1.38,1.37-3,2.89-3.86-.25-.19-.48-.5-.75-.53a19.32,19.32,0,0,0-2.29-.08H687c-.88,0-1.75,0-2.62.09-.65.07-.8.64-.93,1.18.73.19,1,.84,1.28,1.39q2.92,4.92,5.82,9.84c2.43,4.13,4.83,8.28,7.25,12.41,2.8,4.8,5.68,9.55,8.37,14.4,1.31,2.37,3,4.53,3.81,7.18a1,1,0,0,1,.64.77Z"/><path class="cls-1" d="M710,46.2c-.77-2.65-2.5-4.81-3.81-7.18-2.69-4.85-5.57-9.6-8.37-14.4-2.42-4.13-4.82-8.28-7.25-12.41q-2.89-4.92-5.82-9.84c-.32-.55-.55-1.2-1.28-1.39a1.47,1.47,0,0,0-1.24.91C681.11,3.66,680,5.4,679,7.19c-2.69,4.61-5.32,9.25-8,13.86-2.84,4.89-5.72,9.76-8.59,14.65-1.38,2.34-2.81,4.66-4.12,7-.73,1.31-1.76,2.55-1.46,4.23h53.17Z"/><path class="cls-6" d="M738.21.32c-1.52.87-2.07,2.48-2.89,3.86-2.91,4.87-5.76,9.78-8.61,14.68-2.63,4.52-5.23,9.07-7.87,13.59-2,3.39-4,6.75-6,10.14a25.53,25.53,0,0,0-1.19,2.33c-.38.82-.11,1.28.76,1.32s2,0,3,0h46.24c1.09,0,2.18,0,3.27,0a9.51,9.51,0,0,0-.56-1.49Q751.66,23.1,739,1.38C738.74,1,738.46.67,738.21.32Z"/><path class="cls-1" d="M655.77,45.45c-.76,0-1.52.12-2.28.12h-49c-.65,0-1.3-.06-1.95-.1.58-2.74,2.49-4.8,3.75-7.2,1.15-2.21,2.52-4.32,3.78-6.48,1.81-3.1,3.6-6.21,5.41-9.32,1.26-2.16,2.53-4.31,3.8-6.47C621.2,12.81,623,9.59,625,6.45c1.09-1.76,1.75-3.77,3.12-5.36a9.1,9.1,0,0,1,.78-1,.72.72,0,0,1,1.14.1c1.49,2.41,3.06,4.77,4.36,7.28,2.56,4.93,5.61,9.57,8.42,14.36,1.37,2.35,2.63,4.77,4,7.12,1.71,2.91,3.51,5.76,5.21,8.67,1.26,2.16,2.45,4.36,3.62,6.58A3.78,3.78,0,0,1,655.77,45.45Z"/><path class="cls-3" d="M385.89,47.66l-.83-.64c-1.1,0-2.19,0-3.28,0H335.55c-1,0-2,0-2.95,0s-1.14-.5-.77-1.32.75-1.58,1.19-2.33c2-3.39,4-6.76,6-10.15,2.63-4.52,5.23-9.07,7.86-13.59,2.86-4.9,5.71-9.8,8.61-14.67.83-1.38,1.37-3,2.9-3.87-.25-.18-.49-.49-.75-.52A19.48,19.48,0,0,0,355.34.4H307.13a25.5,25.5,0,0,0-2.62.1c-.65.06-.8.64-.93,1.17.73.19,1,.84,1.29,1.4,1.94,3.28,3.89,6.55,5.82,9.84q3.63,6.19,7.24,12.41c2.8,4.79,5.69,9.54,8.37,14.4,1.32,2.36,3,4.52,3.82,7.18a1,1,0,0,1,.64.76Z"/><path class="cls-1" d="M330.12,46.9c-.78-2.66-2.5-4.82-3.82-7.18-2.68-4.86-5.57-9.61-8.37-14.4q-3.62-6.21-7.24-12.41c-1.93-3.29-3.88-6.56-5.82-9.84-.33-.56-.56-1.21-1.29-1.4a1.52,1.52,0,0,0-1.24.92c-1.06,1.77-2.19,3.51-3.23,5.29-2.68,4.61-5.32,9.25-8,13.86-2.85,4.9-5.73,9.77-8.6,14.65-1.38,2.35-2.8,4.67-4.12,7-.72,1.3-1.75,2.55-1.46,4.22H330.1Z"/><path class="cls-6" d="M358.38,1c-1.53.87-2.07,2.49-2.9,3.87-2.9,4.87-5.75,9.77-8.61,14.67-2.63,4.52-5.23,9.07-7.86,13.59-2,3.39-4,6.76-6,10.15-.44.75-.82,1.54-1.19,2.33s-.11,1.28.77,1.32,2,0,2.95,0h46.23c1.09,0,2.18,0,3.28,0a9.18,9.18,0,0,0-.57-1.49Q371.83,23.8,359.12,2.07C358.91,1.7,358.63,1.37,358.38,1Z"/><path class="cls-1" d="M275.31,45.41c-.77-2.66-2.5-4.81-3.81-7.18-2.68-4.86-5.57-9.61-8.37-14.4q-3.61-6.21-7.24-12.41C254,8.13,252,4.86,250.07,1.58c-.33-.55-.56-1.2-1.29-1.39a1.49,1.49,0,0,0-1.24.91c-1.06,1.77-2.19,3.51-3.23,5.29-2.68,4.62-5.32,9.25-8,13.87-2.85,4.89-5.73,9.76-8.6,14.64-1.38,2.35-2.8,4.67-4.12,7.05-.73,1.31-1.76,2.55-1.46,4.23H275.3Z"/><path class="cls-6" d="M1311.8,46h.06q-25.23.53-50.47,1c-1.06,0-2.19.41-3.17-.36.61-1,1.23-2.07,1.81-3.12l20.24-36.43c1.38-2.49,2.72-5,4.09-7.49l.73,0c2.68,4.62,5.34,9.25,8.05,13.84Q1302,28.62,1311,43.65C1311.41,44.37,1312.13,45,1311.8,46Z"/><path class="cls-6" d="M30,.49c.05,1.16.84,2,1.38,2.9Q43.2,23.72,55.06,44c.44.75.84,1.52,1.25,2.29a1.45,1.45,0,0,1-1.08.64c-.65,0-1.31,0-2,0H4.15c-.54,0-1.09,0-1.63,0-.06-.21-.11-.42-.17-.64L26.54,4.87C27.25,3.65,28,2.44,28.67,1.2A1.3,1.3,0,0,1,30,.49Z"/><rect class="cls-8" width="1366" height="768"/><path class="cls-1" d="M629.17,0h.66c-.09,2.23,1.27,3.92,2.26,5.71,1.9,3.42,4,6.73,6,10.12,2.34,4,4.6,8.11,7,12.15s4.77,8.05,7.15,12.08c1,1.68,1.89,3.41,2.94,5.06.69,1.07,1.54,1,2.37,0,1.35-1.61,2.07-3.59,3.14-5.36,2.6-4.28,5.13-8.62,7.66-13,2-3.49,4-7,6-10.5,2.48-4.23,5-8.43,7.5-12.66A5.9,5.9,0,0,0,683,0h55.79A6.68,6.68,0,0,0,740,3q3.71,6.53,7.48,13,5.44,9.3,10.92,18.57c2.15,3.65,4.32,7.3,6.46,11a1.72,1.72,0,0,0,1.5,1h0v.64a3.12,3.12,0,0,0,.65,2.14q9.25,15.83,18.48,31.67c2.47,4.24,4.9,8.5,7.34,12.76-.76,0-1.52.07-2.29.07-16.38,0-32.75,0-49.13.06a4.41,4.41,0,0,1-4.6-2.76c-.1-.2-.2-.39-.31-.58-2.61-4.53-5.19-9.07-7.82-13.59-3.51-6-7.08-12-10.6-18-1.71-2.92-3.32-5.88-5.09-8.75-.54-.88-.91-2-2.12-2.36-.1-.22-.2-.44-.31-.66-1-1-2.25-.61-3.39-.61q-23.5,0-47,0a17.32,17.32,0,0,0-2.28.06,3.79,3.79,0,0,0-1.12.56c-.2,1.23.69,2,1.22,2.94Q670.65,72,683.36,93.83c-1.19.07-2.38.2-3.57.2q-24.18,0-48.35,0c-1.19,0-2.38-.15-3.57-.23a3.84,3.84,0,0,0-.15-1.29c-1.17-2.21-2.36-4.41-3.62-6.57-1.7-2.91-3.5-5.77-5.21-8.67-1.37-2.35-2.63-4.77-4-7.12-2.81-4.79-5.86-9.43-8.42-14.36-1.3-2.51-2.87-4.87-4.36-7.28a.72.72,0,0,0-1.14-.1,9.1,9.1,0,0,0-.78,1c-1.37,1.59-2,3.59-3.12,5.35-2,3.15-3.77,6.37-5.64,9.56-1.27,2.16-2.54,4.31-3.8,6.47-1.81,3.11-3.6,6.22-5.41,9.32-1.26,2.16-2.63,4.27-3.78,6.48-1.26,2.4-3.17,4.46-3.75,7.2a1.29,1.29,0,0,1-.54.15l-.68-.09c-.47-2.19-1.9-3.89-3-5.76q-5.25-9.19-10.57-18.34-4.33-7.47-8.72-14.9c-1.16-2-2.37-3.9-3.53-5.86a1.73,1.73,0,0,0-1.86-1c-.92-1.14-2.21-.7-3.35-.7q-22.9,0-45.81,0H494a1.8,1.8,0,0,1-1.43-.66,6.4,6.4,0,0,1,1.09-2.7c1.84-3.19,3.73-6.36,5.6-9.54l7.42-12.62c2.19-3.74,4.38-7.48,6.54-11.24,1.4-2.45,2.76-4.93,4.11-7.4A4.92,4.92,0,0,0,518.24,0h2c-.3,1.68.73,2.92,1.46,4.23,1.32,2.38,2.74,4.7,4.12,7.05,2.87,4.88,5.75,9.75,8.6,14.64,2.68,4.62,5.32,9.25,8,13.86,1,1.79,2.17,3.53,3.23,5.3a1.49,1.49,0,0,0,1.24.91c.13.54.28,1.12.93,1.18.87.08,1.74.09,2.62.09h48.21a19.23,19.23,0,0,0,2.28-.08c.27,0,.51-.34.75-.53a11.25,11.25,0,0,0,.75-1.06Q615.11,23.9,627.77,2.17a9.18,9.18,0,0,0,.57-1.49Z"/><path class="cls-5" d="M1067,91.93v2h-51.62c-.76,0-1.52-.06-2.28-.08a9,9,0,0,1,.56-1.53q4-6.93,8-13.83c2.48-4.23,5-8.44,7.45-12.67,2.87-4.88,5.74-9.75,8.57-14.66a9.5,9.5,0,0,0,1.71-3.85c-.34-2.12-1.74-3.73-2.77-5.51-3-5.1-6-10.17-8.92-15.26-2.63-4.53-5.22-9.09-7.85-13.61-2-3.4-4-6.76-6-10.15a4.15,4.15,0,0,0-2-2.07q-15.58,0-31.17,0c-7.54,0-15.09,0-22.63,0L958,0h108.31V1.35a6.18,6.18,0,0,1-.39,1.24c-2.27,4-4.56,7.93-6.87,11.87-5,8.45-10,16.88-14.89,25.35a58.36,58.36,0,0,0-4.08,7.44c1.94,4.51,4.81,8.51,7.17,12.78s5,8.42,7.42,12.64c2.68,4.6,5.3,9.23,8,13.82.93,1.6,2,3.12,3,4.68A1.57,1.57,0,0,0,1067,91.93Z"/><path class="cls-9" d="M1067,282.93v93.21l-53.82,0a4.29,4.29,0,0,1,.61-2.5q2.65-4.49,5.3-9c2.54-4.31,5.08-8.6,7.6-12.91,2.14-3.66,4.26-7.32,6.39-11,1.75-3,3.51-6,5.23-9a7.09,7.09,0,0,0,1.18-3c1.23-.35,1.47-1.54,2-2.45q12.07-20.59,24.11-41.22C1066,284.33,1066.14,283.37,1067,282.93Z"/><path class="cls-1" d="M1067,141.16V187.1c-.9-.36-1.19-1.22-1.62-2l-6.59-11.29L1051.85,162q-4.55-7.76-9.07-15.51c-.72-1.23-1.34-2.5-2.1-3.69-.56-.88-1.24-.82-1.75.05q-3.15,5.35-6.28,10.72L1025.39,166q-4.31,7.34-8.59,14.66c-1,1.79-2.07,3.59-3.07,5.4-.64,1.16-.38,1.66.85,1.72.66,0,1.31,0,2,0H1067v.65l-49.34,0c-1.3,0-2.61.08-3.91.12a2.38,2.38,0,0,1-1.64-1c-.57-.94-1.14-1.87-1.69-2.81-2.75-4.71-5.48-9.43-8.23-14.14q-7.92-13.57-15.86-27.14a3.49,3.49,0,0,1-.79-2.42c.65,0,1.31.08,2,.08h49.7c.76,0,1.53-.07,2.29-.11l.68,0c1.2.05,2.4.13,3.59.14Z"/><path class="cls-10" d="M1013.74,188.55c1.3,0,2.61-.12,3.91-.12l49.34,0v2c-.16.15-.37.26-.47.43-2.93,5.11-5.8,10.25-8.76,15.33-4.94,8.48-9.94,16.91-14.91,25.37a25.44,25.44,0,0,0-1.16,2.34.79.79,0,0,0,.74,1.13c.65,0,1.3.05,2,.05H1067V281a3.53,3.53,0,0,1-.65,0c-.9-1.62-1.8-3.24-2.72-4.85-3.53-6.15-7-12.31-10.61-18.43-4.29-7.35-8.64-14.66-13-22l0-.67a7.56,7.56,0,0,0-1.49-3.57c-2.88-5-5.82-10-8.73-14.93s-5.76-9.74-8.58-14.64C1018.72,197.46,1016.24,193,1013.74,188.55Z"/><path class="cls-11" d="M1066.34,281a3.53,3.53,0,0,0,.65,0v1.32c-1,0-2-.12-2.93-.12H1016c-.77,0-1.53,0-2.29,0a1.19,1.19,0,0,0-1,.7l-.76.06,0-.73a17,17,0,0,0-2.29-5c-2.86-5-5.79-9.95-8.72-14.91-2.54-4.31-5.15-8.57-7.67-12.89-2-3.37-3.88-6.8-5.82-10.2q-.24-.42-.45-.87c-.93-2-2.32-2.72-4.64-2.7-16.36.11-32.73.07-49.09,0-1.16,0-2.42.36-3.45-.56l.09-.1c.87,0,1.75.05,2.62.05H975c3.28,0,6.55,0,9.83-.06l55.22,0,0,.67a2.59,2.59,0,0,0-1.17,1.1q-4.81,8.34-9.65,16.68c-2,3.39-3.84,6.83-5.81,10.22-3.24,5.55-6.52,11.07-9.78,16.6-.41.71-.09,1.23.8,1.28s1.75,0,2.62,0h45.56a22.92,22.92,0,0,0,2.62-.06A3.49,3.49,0,0,0,1066.34,281Z"/><path class="cls-5" d="M299,47.29l1.34,0c0,.33-.06.65-.06,1q0,21.78,0,43.55c0,.27-.13.7.44.71a5.82,5.82,0,0,0,1.55-2c2-3.4,3.85-6.83,5.83-10.22C313.05,71.91,318.05,63.48,323,55a63,63,0,0,0,4.24-7.73.79.79,0,0,1,.59-.67,1,1,0,0,1,.1.58,1.41,1.41,0,0,0,.6,1.45c1.41,3.3,3.49,6.24,5.24,9.37,2.49,4.46,5.17,8.82,7.75,13.23,2,3.48,4,7,6,10.46,1.81,3.1,3.66,6.18,5.45,9.29a6.37,6.37,0,0,1,1.2,3c-.66,0-1.31-.07-2-.07H302.5c-.76,0-1.52.08-2.28.12L299,93.9Z"/><path class="cls-4" d="M1040.16,141l-.68,0c-2-3.61-4-7.23-6-10.82-1.78-3.12-3.63-6.21-5.44-9.31-1.27-2.16-2.52-4.33-3.79-6.49-1.81-3.11-3.63-6.21-5.43-9.32q-2.55-4.38-5.06-8.78a2,2,0,0,0-1.86-1.12l.12-1.45,1.12.08c.76,0,1.52.08,2.28.08H1067v2.62a1.56,1.56,0,0,0-1.35.76c-.84,1.4-1.74,2.76-2.58,4.16q-3.9,6.61-7.77,13.24c-2,3.47-4.07,6.95-6.06,10.45C1046.22,130.43,1042.85,135.53,1040.16,141Z"/><path class="cls-12" d="M1067,470h-49.81c-1,0-2,0-2.95-.07a1,1,0,0,1-.87-1.43A10,10,0,0,1,1014,467q5.75-9.87,11.51-19.75c2.53-4.31,5.15-8.58,7.69-12.89,1.83-3.1,3.59-6.23,5.4-9.33a1.35,1.35,0,0,1,2.54,0c1.77,3,3.48,6,5.23,9.05q4,6.92,8,13.84c2,3.48,4,7,6.06,10.45,1.59,2.72,3.19,5.45,4.8,8.16a1.92,1.92,0,0,0,1.68.85Z"/><path class="cls-13" d="M1013.17,376.12l53.82,0v.66c-1.44,1.52-2.14,3.51-3.21,5.26-3.81,6.22-7.46,12.54-11.12,18.85-3.55,6.12-7,12.28-10.57,18.42-.54.94-1.16,1.84-1.79,2.72a.61.61,0,0,1-1.09,0c-.78-1.3-1.47-2.66-2.24-4q-4.18-7.2-8.4-14.38-3.63-6.21-7.25-12.41c-2.19-3.77-4.43-7.5-6.54-11.31-.57-1-1.59-1.85-1.65-3.15C1013.14,376.58,1013.15,376.35,1013.17,376.12Z"/><path class="cls-14" d="M1012.65,282.89a1.19,1.19,0,0,1,1-.7c.76,0,1.52,0,2.29,0h48.1c1,0,2,.08,2.93.12v.65c-.85.44-1,1.4-1.4,2.12q-12.08,20.59-24.11,41.22c-.53.91-.77,2.1-2,2.45l-.55-.79a3.29,3.29,0,0,0-.89-1.67.79.79,0,0,0-.51-.8.68.68,0,0,0-.23-.51.65.65,0,0,0-.47-.71l-.72-1.27a1.27,1.27,0,0,0-.68-1.18l0-.11a.76.76,0,0,0-.49-.77,7.76,7.76,0,0,0-1.44-2.53,1.23,1.23,0,0,0-.66-1.14l-.08-.14a.67.67,0,0,0-.47-.74l-.72-1.26a1.3,1.3,0,0,0-.68-1.19l0-.1a.77.77,0,0,0-.5-.77,7.53,7.53,0,0,0-1.44-2.54.78.78,0,0,0-.5-.79.73.73,0,0,0-.24-.52.66.66,0,0,0-.47-.71l-.72-1.26a1.28,1.28,0,0,0-.68-1.19l0-.1a.75.75,0,0,0-.5-.77,7.56,7.56,0,0,0-1.43-2.53.8.8,0,0,0-.51-.8.72.72,0,0,0-.24-.51.63.63,0,0,0-.46-.71l-.72-1.27a1.28,1.28,0,0,0-.68-1.18l0-.11a.77.77,0,0,0-.5-.77,7.42,7.42,0,0,0-1.44-2.53.77.77,0,0,0-.5-.79.73.73,0,0,0-.24-.52.66.66,0,0,0-.47-.71l-.72-1.26a1.28,1.28,0,0,0-.68-1.19l0-.1a.76.76,0,0,0-.49-.77,7.71,7.71,0,0,0-1.44-2.54,1.21,1.21,0,0,0-.66-1.13l-.07-.15a.69.69,0,0,0-.48-.74A4.14,4.14,0,0,0,1012.65,282.89Z"/><path class="cls-6" d="M1067,187.76h-50.44c-.66,0-1.31,0-2,0-1.23-.06-1.49-.56-.85-1.72,1-1.81,2-3.61,3.07-5.4q4.28-7.33,8.59-14.66l7.26-12.41q3.13-5.35,6.28-10.72c.51-.87,1.19-.93,1.75-.05.76,1.19,1.38,2.46,2.1,3.69q4.53,7.76,9.07,15.51l6.93,11.85,6.59,11.29c.43.75.72,1.61,1.62,2Z"/><path class="cls-4" d="M1040.12,47.25l26.87,0V91.93a1.57,1.57,0,0,1-1.35-.76c-1-1.56-2-3.08-3-4.68-2.68-4.59-5.3-9.22-8-13.82-2.46-4.22-5.06-8.37-7.42-12.64S1042.06,51.76,1040.12,47.25Z"/><path class="cls-1" d="M1040.16,141c2.69-5.48,6.06-10.58,9.07-15.88,2-3.5,4-7,6.06-10.45q3.87-6.63,7.77-13.24c.84-1.4,1.74-2.76,2.58-4.16a1.56,1.56,0,0,1,1.35-.76v44.64h-23.24C1042.56,141.14,1041.36,141.06,1040.16,141Z"/><path class="cls-1" d="M1067,235h-22.6c-.66,0-1.31,0-2-.05a.79.79,0,0,1-.74-1.13,25.44,25.44,0,0,1,1.16-2.34c5-8.46,10-16.89,14.91-25.37,3-5.08,5.83-10.22,8.76-15.33.1-.17.31-.28.47-.43Z"/><path class="cls-11" d="M792.68,187.68a7.13,7.13,0,0,1-1.38,4c-2.48,4.22-5,8.4-7.53,12.62-2,3.48-4,7-6,10.51-2.39,4.15-4.83,8.27-7.25,12.41-1.33,2.25-2.65,4.51-4,6.76q-4,6.92-8,13.84c-2,3.48-4,7-6.06,10.46q-3.78,6.5-7.58,13c-1.31,2.25-2.62,4.52-4,6.76a29,29,0,0,1-1.62,2.46,1,1,0,0,1-1.67,0c-1.3-2-2.58-4-3.79-6.11-2.7-4.6-5.35-9.23-8-13.85q-3.1-5.37-6.23-10.73c-2.59-4.42-5.2-8.82-7.79-13.24-.53-.9-.24-1.4.85-1.45.87,0,1.75,0,2.62,0h45.9c1,0,2,0,3-.08a1,1,0,0,0,.7-1.51c-1.37-2.35-2.78-4.68-4.16-7q-4.21-7.19-8.41-14.38c-1.76-3-3.49-6-5.24-9.06-2.29-4-4.76-7.82-6.8-11.91-1.07-2.14-2.4-2.71-4.62-2.67-6,.12-12,0-18,0q-15.09,0-30.17,0c-1,0-2.21.37-3.06-.65a7.62,7.62,0,0,1,.5-1.53c1.79-3.12,3.63-6.21,5.45-9.31,2.54-4.33,5.08-8.64,7.61-13,2.09-3.58,4.15-7.17,6.24-10.75,1.8-3.1,3.64-6.2,5.42-9.32a5.32,5.32,0,0,0,1-2.72h50.78a20.74,20.74,0,0,0,2.62-.07c.38,0,.73-.39,1.1-.6l1.15,1.36a1,1,0,0,1,.14.63,2.09,2.09,0,0,0-1.87,1.12c-1.43,2.44-2.89,4.87-4.31,7.32-2.62,4.53-5.2,9.09-7.83,13.61-3.52,6-7.08,12-10.63,18-.66,1.13-1.38,2.23-2,3.39-.5,1,0,1.71,1.08,1.79.43,0,.87,0,1.31,0l50.54,0Z"/><path class="cls-6" d="M875.28,47.34c3.61,0,7.21-.05,10.82-.05l43.64-.06.38.36c0,.33-.07.65-.1,1a2.13,2.13,0,0,0-1.11,1.14q-5.67,9.72-11.37,19.45c-3.47,5.91-7,11.81-10.43,17.73-1.1,1.87-2.15,3.78-3.19,5.69-.39.72,0,1.25.81,1.32.44,0,.87,0,1.31,0h48.43a3.07,3.07,0,0,0,2.19-.42l1.3.28,0,.7c-1.67,1.2-2.28,3.16-3.27,4.81-3.62,6.09-7.06,12.28-10.62,18.4-3.45,5.93-7,11.81-10.44,17.75a36.48,36.48,0,0,0-3.17,5.7l-.66.68a1.67,1.67,0,0,1-.05-.59,3,3,0,0,0-.16-1c-2.43-4.25-4.85-8.51-7.33-12.73s-5.16-8.58-7.68-12.91c-3.51-6-7-12.07-10.42-18.11-.11-.19-.22-.38-.34-.56a1.09,1.09,0,0,0-1.9,0c-1.49,2.41-3,4.83-4.37,7.28-3.53,6.13-7,12.3-10.56,18.41-3.4,5.83-6.88,11.61-10.31,17.42a3.88,3.88,0,0,0-.73,2.14l-.11.69a3.43,3.43,0,0,1-.56-.07,1.47,1.47,0,0,0-.55-1.35c-.91-1.73-1.76-3.49-2.75-5.18-5.62-9.58-11.28-19.13-16.9-28.71-2.48-4.23-4.88-8.49-7.32-12.73l1.16-.09c.76.06,1.52.17,2.28.17h48.17a11.6,11.6,0,0,0,2-.1.67.67,0,0,0,.57-1,6.4,6.4,0,0,0-.52-1.2c-3.22-5.19-6.21-10.51-9.25-15.8-5.08-8.89-10.33-17.7-15.5-26.54a2.86,2.86,0,0,0-1.3-1.4Z"/><path class="cls-1" d="M766.22,141.84c-.39-.45-.77-.91-1.15-1.36a8.69,8.69,0,0,0-.51-1.54q-2.59-4.53-5.24-9c-2.49-4.22-5-8.41-7.5-12.63-3.9-6.66-7.92-13.27-11.61-20-1.76-3.24-2.42-2.63-4.89-2.69-.55,0-1.09,0-1.64,0l-50.1,0-.23-.75c1-.19,1.24-1.14,1.66-1.86q8.85-15.1,17.66-30.22c2.7-4.6,5.46-9.17,8.19-13.76,1.21.33,1.58,1.48,2.12,2.36,1.77,2.87,3.38,5.83,5.09,8.75,3.52,6,7.09,12,10.6,18,2.63,4.52,5.21,9.06,7.82,13.59.11.19.21.38.31.58A4.41,4.41,0,0,0,741.4,94c16.38-.11,32.75-.06,49.13-.06.77,0,1.53,0,2.29-.07l.22,0,.22.06a3.14,3.14,0,0,1-.19.95c-2.19,3.63-4.44,7.23-6.59,10.89-2.05,3.47-4,7-6,10.48-2.52,4.33-5.09,8.62-7.62,12.93-1.82,3.1-3.64,6.2-5.43,9.31a5.91,5.91,0,0,0-1.06,2.72Z"/><path class="cls-1" d="M520.08,95.32q6.9,11.91,13.81,23.83,6.09,10.5,12.22,21a3.89,3.89,0,0,1,.29.93c-1.31,0-2.61.08-3.92.09H511.73c-5.78,0-11.56,0-17.34,0-.84,0-1.77-.28-2.44.53l-.05.05a.78.78,0,0,0-.61.71c-2.51,4.22-5.05,8.42-7.52,12.65q-9.48,16.25-18.91,32.51l-.84,0q-13.29-22.85-26.6-45.69c.05-.26.09-.52.14-.78.54,0,1.09,0,1.63,0h49.12c.66,0,1.31,0,2,0a1.39,1.39,0,0,0,1.08-.64c1.55,0,1.81-1.45,2.37-2.39,3.24-5.41,6.38-10.88,9.54-16.34q6.32-10.86,12.61-21.72c.87-1.51,1.74-3,2.6-4.53C519,94.66,519.5,94.93,520.08,95.32Z"/><path class="cls-1" d="M491.43,234.34a1.37,1.37,0,0,0,1.12-.57c1.36-2.23,2.79-4.43,4-6.72,2.88-5.26,6-10.38,9.07-15.53,3.64-6.08,7.06-12.29,10.59-18.43.7-1.23,1.48-2.41,2.25-3.6a1,1,0,0,1,1.45,0c.67,1,1.33,2,1.93,3,2.68,4.62,5.31,9.27,8,13.89,2.41,4.14,4.87,8.26,7.29,12.4,2.09,3.57,4.13,7.17,6.24,10.74.83,1.4,1.76,2.74,2.7,4.07a.78.78,0,0,0,1.37-.08c.6-.9,1.21-1.81,1.74-2.76,2.78-5.06,5.72-10,8.74-15,2.06-3.34,3.89-6.82,5.84-10.22,2.66-4.64,5.23-9.32,8-13.87,2.13-3.47,2.33-3.32,4.43,0s3.9,6.81,5.87,10.21c2.51,4.33,5.08,8.64,7.61,13,2,3.48,4,7,6.06,10.46,1.05,1.79,2.13,3.56,3.17,5.35.55.94,1.08,1.89,1.55,2.87.37.77.05,1.31-.77,1.35-1,.05-2,.05-3,.05H495.73l-4.27,0-.12,0Z"/><path class="cls-5" d="M437.56,141.11c-.05.26-.09.52-.14.78a3.07,3.07,0,0,0-1.66,1.51q-3.63,6.21-7.24,12.45-4,6.93-8.07,13.86c-2,3.49-4,7-6.08,10.47-1.16,2-2.37,3.92-3.55,5.89a2.26,2.26,0,0,1-1.43,1.24c-1.41-1.3-1.9-3.17-2.89-4.73-2.55-4.05-4.91-8.24-7.31-12.39-2-3.49-4-7-6-10.51q-4.35-7.5-8.77-15c-.64-1.09-1.07-2.42-2.47-2.88-.07-.24-.15-.48-.23-.72a5.83,5.83,0,0,0-1.09-2.7c-1.79-3.12-3.61-6.22-5.43-9.31q-3.81-6.48-7.62-13c-2.81-4.79-5.69-9.53-8.38-14.39-1.31-2.37-3-4.53-3.82-7.18.77,0,1.53-.06,2.29-.06h51.63c-.35.68-.66,1.38-1.05,2q-4.92,8.49-9.86,17-4.22,7.2-8.44,14.4c-2,3.48-4.14,6.93-6.15,10.43-.44.78-1.2,1.55-.74,2.75h50.54c1.3,0,2.64.21,3.79-.68Z"/><path class="cls-1" d="M683.35,93.77c.08.25.15.5.23.75q-13,22.28-26,44.57c-.38.65-.94,1.22-.89,2.06l0-.05a3.49,3.49,0,0,1-1.51-1.64q-9.19-15.8-18.42-31.58-3.52-6.06-7.07-12.13c-.57-1-.58-1-1.86.11-.1-.54-.23-1.14-.88-1.21a25,25,0,0,0-2.6-.07q-23.18,0-46.33,0-1.14,0-2.28,0a1.41,1.41,0,0,0-1.09.61l-.64-.67a2.3,2.3,0,0,0,.11-.57,1.29,1.29,0,0,0,.54-.15c.65,0,1.3.1,1.95.1h49c.76,0,1.52-.08,2.28-.13,1.19.08,2.38.23,3.57.23q24.16,0,48.35,0c1.19,0,2.38-.13,3.57-.2Z"/><path class="cls-4" d="M574.15,94a2.3,2.3,0,0,1-.11.57h-50q-1.3,0-2.61,0a1.76,1.76,0,0,0-1.39.74c-.58-.39-1.13-.66-1.6.17-.86,1.52-1.73,3-2.6,4.53q-6.3,10.86-12.61,21.72c-3.16,5.46-6.3,10.93-9.54,16.34-.56.94-.82,2.36-2.37,2.39-.42-.76-.82-1.53-1.26-2.28L466.42,97.58c-.54-.92-1.33-1.74-1.38-2.91l0-.68c1.31,0,2.61-.08,3.92-.08h45.41q1.3,0,2.61,0a1.87,1.87,0,0,0,1.42-.69h1.73c1,1.07,2.24.68,3.39.68q25,0,50,0Z"/><path class="cls-1" d="M929.79,141.25a1.67,1.67,0,0,0,.05.59c-2.39,4.17-4.77,8.35-7.19,12.51q-8.34,14.29-16.71,28.59c-.72,1.23-1.43,2.46-2.11,3.7a.75.75,0,0,0,.61,1.17c1,.05,2,.05,2.95.05q23.29,0,46.59,0c1.17,0,2.42-.35,3.5.45l-.31.25c-.87,0-1.74-.1-2.61-.1H906.83c-.76,0-1.53,0-2.29.05a1.38,1.38,0,0,0-1.08.63l-.6-.08a2.82,2.82,0,0,0-.43-1.53q-8-13.63-16-27.3-4.94-8.44-9.86-16.9c-.27-.47-.48-1-.71-1.46,0-.23.07-.46.11-.69.54,0,1.09,0,1.64,0H927.5C928.26,141.16,929,141.22,929.79,141.25Z"/><path class="cls-13" d="M519.32,516.62h23.27c.88,0,1.75,0,2.62,0s1.19.56.84,1.31-.86,1.77-1.35,2.61q-4.19,7.2-8.42,14.39c-1.54,2.63-3.1,5.25-4.65,7.88l-3.82,6.47q-2.71,4.66-5.41,9.33c-.65,1.14-1.31,2.27-2,3.4q-1.22,2.09-2.35.12c-1.75-3-3.46-6.06-5.22-9.06-3.63-6.21-7.31-12.39-10.93-18.6-2.64-4.52-5.21-9.07-7.82-13.6-.44-.76-1-1.46-1.4-2.21-.83-1.44-.55-2,1-2.07.77,0,1.53,0,2.3,0Z"/><path class="cls-12" d="M793.4,610.47c7.65,0,15.3,0,23,0a17.29,17.29,0,0,1,2.6.16,1.23,1.23,0,0,1,.88,1.76,15.27,15.27,0,0,1-.77,1.44q-4.2,7.2-8.41,14.38-2.32,3.94-4.66,7.87c-1.28,2.16-2.56,4.31-3.82,6.48-1.81,3.1-3.53,6.26-5.45,9.3-.87,1.39-1.51,2.9-2.38,4.29a1.14,1.14,0,0,1-2.09.06c-.91-1.49-1.77-3-2.65-4.51q-2.61-4.53-5.24-9.05c-1.26-2.16-2.55-4.3-3.82-6.47-1.81-3.1-3.59-6.22-5.4-9.33-1.21-2.07-2.44-4.12-3.66-6.18l-4.14-7a11.54,11.54,0,0,1-.6-1.16,1.32,1.32,0,0,1,1.09-1.92,22.78,22.78,0,0,1,2.62-.09Z"/><path class="cls-12" d="M628.83,720.08c7.87,0,15.74,0,23.61,0,3.34,0,3.61.56,1.9,3.54-3.58,6.24-7.11,12.5-10.72,18.72-2.52,4.32-5.17,8.58-7.72,12.89-1.77,3-3.48,6-5.22,9.06a8.46,8.46,0,0,1-.68,1.11,1.45,1.45,0,0,1-2.28,0c-.56-.8-1-1.69-1.48-2.54l-8.6-14.65c-2.48-4.22-5-8.44-7.46-12.67s-5-8.65-7.57-13a3.17,3.17,0,0,1-.28-.92,1.21,1.21,0,0,1,.93-1.48c.87-.08,1.75-.09,2.62-.09Z"/><path class="cls-14" d="M1012.73,516.61h22.64a20.72,20.72,0,0,1,2.62.1,1.22,1.22,0,0,1,1,1.92c-2.33,3.93-4.71,7.84-7,11.79-2,3.49-4,7-6,10.52-2.46,4.24-5,8.45-7.45,12.68-1.33,2.26-2.62,4.53-3.93,6.8-1.91,3.3-2.16,3.31-4,.19-4.11-6.94-8.27-13.85-12.34-20.81-3.57-6.12-7-12.29-10.57-18.44-.54-1-1.16-1.85-1.67-2.81a1.23,1.23,0,0,1,.86-1.77,19,19,0,0,1,2.61-.17Z"/><path class="cls-15" d="M436.2,328.85a1,1,0,0,1,.25,1.41c-1,1.8-2,3.62-3.06,5.41q-6.76,11.58-13.54,23.16-4.38,7.49-8.78,14.95a7.12,7.12,0,0,1-.8,1,.8.8,0,0,1-1.37-.07,10.29,10.29,0,0,1-.94-1.33c-3.69-6.44-7.35-12.88-11.06-19.31-2.08-3.58-4.23-7.13-6.33-10.7q-4-6.76-7.94-13.54a2.93,2.93,0,0,1-.17-1H383q17.46,0,34.92,0C424,328.9,430.1,328.87,436.2,328.85Z"/><path class="cls-15" d="M602.25,515.94a1.77,1.77,0,0,0,1.43.66h47.55c1,0,2,0,2.95,0a1.27,1.27,0,0,1,1.1,1.91,43.44,43.44,0,0,1-2.24,4c-2.14,3.67-4.27,7.34-6.42,11-2.53,4.32-5.09,8.62-7.62,12.94-2,3.39-3.94,6.79-5.9,10.18-.93,1.6-1.81,3.24-2.77,4.82-.86,1.4-2.18,1.33-3.06-.17-1.66-2.82-3.27-5.67-4.92-8.49-3.53-6-7.09-12-10.6-18-2-3.38-3.87-6.82-5.83-10.22-1-1.7-2-3.39-3-5a6.53,6.53,0,0,1-1.3-3Z"/><path class="cls-12" d="M519.32,422.74h23.3c.87,0,1.75,0,2.62.05s1.19.61.81,1.32c-.57,1.06-1.21,2.07-1.82,3.1-3.54,6-7.1,12-10.61,18-2,3.39-3.86,6.83-5.82,10.24q-3.51,6.09-7.09,12.14c-.84,1.42-2.2,1.35-3.06-.15-1.9-3.3-3.75-6.64-5.66-9.94-2.46-4.25-5-8.46-7.45-12.69-2.09-3.58-4.15-7.17-6.22-10.75q-2.79-4.81-5.59-9.61c-.76-1.31-.56-1.67,1-1.73.76,0,1.53,0,2.3,0Z"/><path class="cls-15" d="M683.65,422.74h23.29c.87,0,1.75,0,2.62.07a1,1,0,0,1,.78,1.47c-.52,1-1.09,1.89-1.65,2.82-3.49,5.91-7,11.8-10.47,17.73-3.56,6.12-7,12.3-10.57,18.43-1,1.79-2.17,3.53-3.31,5.25-.53.81-1.26.74-1.77-.12-1-1.7-1.93-3.42-2.92-5.11-3-5.08-6-10.15-8.91-15.24-2.68-4.62-5.31-9.26-8-13.89-1.74-3-3.52-6-5.28-9a4.27,4.27,0,0,1-.59-1.14.82.82,0,0,1,.55-1.05,16,16,0,0,1,2.59-.19Z"/><path class="cls-12" d="M1038.93,327.93l.55.79a7.09,7.09,0,0,1-1.18,3c-1.72,3-3.48,6-5.23,9-2.13,3.66-4.25,7.32-6.39,11-2.52,4.31-5.06,8.6-7.6,12.91q-2.64,4.49-5.3,9a4.29,4.29,0,0,0-.61,2.5c0,.23,0,.46,0,.69H1012a1.55,1.55,0,0,0-.75-1.21,6.7,6.7,0,0,0-1.31-4c-2.49-4.22-5-8.39-7.53-12.62-2-3.47-4-7-6-10.49-2.46-4.24-5-8.45-7.45-12.67-1-1.78-2.09-3.57-3.1-5.37-.42-.74.08-1.51,1-1.56s2-.05,2.95-.05h44.88c1,0,2,0,3-.06A1.63,1.63,0,0,0,1038.93,327.93Z"/><path class="cls-16" d="M601.5,282.27H578.89c-.65,0-1.31,0-2,0-2.4.11-2.58-.91-1.47-2.8,3.37-5.72,6.79-11.42,10.15-17.15,2.64-4.51,5.21-9.06,7.83-13.58q3.43-5.94,6.92-11.85a2.8,2.8,0,0,1,.6-.76.74.74,0,0,1,1.14.1c.83,1.28,1.6,2.6,2.38,3.91q4.31,7.32,8.59,14.65c2,3.49,4,7,6,10.5,2.46,4.24,5,8.45,7.46,12.67.33.56.7,1.1,1,1.68,1.23,2.34,1.09,2.62-1.44,2.62Q613.79,282.29,601.5,282.27Z"/><path class="cls-3" d="M793.26,93.87l-.22-.06-.22,0c-2.44-4.26-4.87-8.52-7.34-12.76Q776.26,65.24,767,49.41a3.12,3.12,0,0,1-.65-2.14l.68-.07c2.51,0,5,.07,7.54.07h40.69c1.2,0,2.4-.05,3.6-.07.64.15,1.19.07,1.47-.62a1,1,0,0,1,.54.08l.63.65c0,.44,0,.87,0,1.31-.73-.53-1.3-.56-1.82.35-2.44,4.27-4.92,8.52-7.4,12.76q-9.16,15.72-18.35,31.42A4.86,4.86,0,0,1,793.26,93.87Z"/><path class="cls-12" d="M930.51,376.14H907.57c-.87,0-1.75,0-2.62,0-1.14-.06-1.62-.75-1.1-1.76,1-2,2.18-4,3.32-6,2.17-3.77,4.37-7.52,6.57-11.28,1.55-2.63,3.12-5.24,4.66-7.86,1.43-2.45,2.82-4.91,4.25-7.35q3.24-5.48,6.53-10.93a1.24,1.24,0,0,1,2.16-.06c.84,1.27,1.61,2.59,2.38,3.9q4.54,7.74,9.06,15.5c2.57,4.43,5.08,8.88,7.66,13.3,2,3.39,4,6.74,6,10.11a11.57,11.57,0,0,1,.58,1.17.82.82,0,0,1-.62,1.22c-.87.06-1.75.07-2.62.07Z"/><path class="cls-16" d="M437.48,236.33V235l53.86,0,.12,0c-.11,2-1.5,3.36-2.37,5-2.15,3.91-4.47,7.73-6.72,11.58L475.1,264c-2.14,3.67-4.25,7.35-6.41,11-1.16,2-2.39,3.89-3.58,5.85a1.56,1.56,0,0,1-1.35.76,6.89,6.89,0,0,0-1.3-2.94q-3.91-6.59-7.77-13.2c-2-3.47-4-7-6-10.43-2.73-4.7-5.44-9.4-8.2-14.08A27.46,27.46,0,0,0,437.48,236.33Z"/><path class="cls-16" d="M820.81,235c18,0,36,0,54.16,0a11.46,11.46,0,0,1-1.8,4.19c-4.06,7-8.21,13.87-12.3,20.82-3,5.16-6.06,10.33-9.08,15.51-1,1.69-1.92,3.42-2.93,5.1-.46.77-1.05.79-1.52.1s-1.08-1.64-1.58-2.48c-2.78-4.69-5.58-9.36-8.32-14.07-3.56-6.12-7-12.28-10.58-18.42-1.8-3.11-3.65-6.2-5.5-9.28a3.21,3.21,0,0,1-.52-1.52Z"/><path class="cls-7" d="M386.13,141.85q-13,22.23-26,44.46a2.44,2.44,0,0,0-.51,1.51l-.88.07c.12-.42-.13-.62-.44-.78q-10.8-18.54-21.58-37.08c-1.38-2.36-2.74-4.73-4.11-7.09a2.6,2.6,0,0,1-.62-1.81h53.9Z"/><path class="cls-12" d="M437,657.73h22.61c.65,0,1.31,0,2,0,2.08-.1,2.65.73,1.6,2.54-1.75,3-3.55,6-5.31,9-2,3.47-4,7-6,10.46-2.51,4.32-5,8.64-7.58,13-1.82,3.09-3.66,6.18-5.49,9.27-.17.28-.31.58-.48.85a1.31,1.31,0,0,1-2.36.07c-.93-1.47-1.79-3-2.66-4.5l-8-13.85c-2.13-3.67-4.25-7.34-6.39-11-2.53-4.32-5.09-8.62-7.64-12.93-.22-.38-.47-.74-.67-1.12-.6-1.14-.32-1.69.9-1.72,2,0,3.94,0,5.9,0Z"/><path class="cls-14" d="M875.31,657.73h22.93c.87,0,1.75,0,2.62,0,1.11.06,1.58.87,1,1.78-1.71,2.9-3.48,5.77-5.18,8.69-2,3.48-4,7-6,10.49-2.46,4.24-5,8.45-7.44,12.67l-5.94,10.14c-.16.28-.28.59-.44.88-.83,1.46-1.77,1.57-2.71.3a24.14,24.14,0,0,1-1.44-2.18c-3.52-6.13-7-12.29-10.56-18.41-2.45-4.23-5-8.4-7.52-12.61-1.72-2.9-3.4-5.83-5.08-8.75a16.9,16.9,0,0,1-.85-1.77.8.8,0,0,1,.66-1.2c.87,0,1.75-.06,2.62-.06Z"/><path class="cls-11" d="M437.48,236.33a27.46,27.46,0,0,1,3,4.63c2.76,4.68,5.47,9.38,8.2,14.08,2,3.47,4,7,6,10.43q3.87,6.61,7.77,13.2a6.89,6.89,0,0,1,1.3,2.94,3.65,3.65,0,0,1-1.11.6,11.57,11.57,0,0,1-2,.07l-50.78,0c0-.19,0-.39,0-.59l5.86-10.15L422,260.8q3.69-6.33,7.39-12.66c2-3.37,4-6.72,5.95-10.11C435.84,237.14,436.32,236.34,437.48,236.33Z"/><path class="cls-13" d="M820.21,516a1.68,1.68,0,0,1-1.42.66c-1.42,0-2.84,0-4.26,0a12.77,12.77,0,0,0-3.88.38,8.6,8.6,0,0,1-2.59.23c-11.36,0-22.71,0-34.06,0a57.42,57.42,0,0,1-6.79-.69.66.66,0,0,1-.53-1c.81-1.53,1.66-3,2.53-4.56q3.36-5.79,6.75-11.56c2.47-4.22,5-8.43,7.45-12.66,2-3.47,4-7,6.05-10.45.87-1.51,1.75-3,2.61-4.53a2,2,0,0,1,1.86-1.12,1.83,1.83,0,0,0,.1.64q6.11,10.59,12.22,21.16c3.44,5.91,6.88,11.83,10.42,17.69C817.84,512.08,818.69,514.22,820.21,516Z"/><path class="cls-6" d="M821.48,48.62c0-.44,0-.87,0-1.31q17.55,0,35.09,0c6.23,0,12.46,0,18.69.07l.09.61c-1.82,3-3.7,5.89-5.45,8.89-3.58,6.12-7.07,12.29-10.63,18.42-3.24,5.56-6.53,11.09-9.81,16.63a4.31,4.31,0,0,0-.52,1.87l-1.16.09L822.24,50.07C822,49.6,821.73,49.1,821.48,48.62Z"/><path class="cls-1" d="M766.22,141.84l.14-.69h51.52c2.29,0,2.78.12,1.34,2.57-1.11,1.89-2.18,3.79-3.28,5.68q-10.61,18.12-21.21,36.23a4.12,4.12,0,0,0-.86,2.1l0,0h-1.22v0a7.55,7.55,0,0,0-.45-1.21q-10.46-18-20.94-35.95c-1.6-2.73-3.29-5.4-4.93-8.09A1,1,0,0,0,766.22,141.84Z"/><path class="cls-5" d="M710.57,141.15a5.32,5.32,0,0,1-1,2.72c-1.78,3.12-3.62,6.22-5.42,9.32-2.09,3.58-4.15,7.17-6.24,10.75-2.53,4.33-5.07,8.64-7.61,13-1.82,3.1-3.66,6.19-5.45,9.31a7.62,7.62,0,0,0-.5,1.53,1.76,1.76,0,0,1-1.53-1c-1.26-2.17-2.57-4.31-3.83-6.47q-7.79-13.25-15.53-26.5c-2-3.39-3.9-6.8-5.82-10.23a4.41,4.41,0,0,1-.88-2.42l0,.05Z"/><path class="cls-13" d="M382.45,563.87h23c.87,0,1.75,0,2.62,0s1.2.55.85,1.29c-.47,1-1,1.94-1.55,2.88q-4.09,7.08-8.22,14.13c-1.55,2.64-3.11,5.26-4.66,7.89l-3.82,6.47q-2.72,4.66-5.41,9.34c-.71,1.23-1.42,2.46-2.14,3.68-.45.75-.94.78-1.45,0-1.13-1.73-2.24-3.49-3.29-5.27q-4.5-7.59-8.93-15.23c-3.55-6.13-7.06-12.29-10.59-18.43-.87-1.51-1.8-3-2.69-4.49-1-1.7-.69-2.24,1.39-2.3.76,0,1.53,0,2.29,0Z"/><path class="cls-15" d="M1011.22,375.61a1.55,1.55,0,0,1,.75,1.21q-7.26,12.44-14.51,24.87-5.25,9.06-10.45,18.15c0,.09-.09.2-.15.29-.53.81-.93,2.08-1.79,2.18-1.09.12-1.23-1.31-1.7-2.1-2.38-4-4.72-8.11-7.09-12.16-2.81-4.8-5.65-9.58-8.46-14.38q-4.47-7.62-8.92-15.25c-.11-.19-.2-.39-.3-.58-.61-1.17-.37-1.66.88-1.71.87,0,1.75,0,2.62,0h39a28,28,0,0,0,6.51-.43A16.51,16.51,0,0,1,1011.22,375.61Z"/><path class="cls-13" d="M903.46,563.74a4.25,4.25,0,0,1,1-2.86c3.56-6.12,7.16-12.21,10.75-18.31,3.49-5.9,7-11.8,10.45-17.72,1.21-2.06,2.34-4.18,3.52-6.27.67-1.19,1.35-1.21,2.15-.06.25.36.43.76.65,1.13,2.92,5,5.86,10,8.76,14.93,2.57,4.43,5.1,8.87,7.67,13.3q4.17,7.22,8.36,14.41c.63,1.08.36,1.51-1,1.57-.54,0-1.09,0-1.63,0H906C905.14,563.86,904.3,563.78,903.46,563.74Z"/><path class="cls-1" d="M628.72,187.42a8.21,8.21,0,0,1-2.06-2.79c-3.58-6.12-7-12.3-10.59-18.43-2.47-4.24-5.05-8.41-7.55-12.63-1.72-2.91-3.39-5.84-5.08-8.77-.27-.48-.51-1-.73-1.47-.66-1.51-.35-2.08,1.19-2.16.77,0,1.53,0,2.3,0h45.29c.76,0,1.53,0,2.29,0,1.54.08,1.88.66,1.19,2.15-.41.89-.9,1.75-1.39,2.6q-3.11,5.39-6.23,10.75c-1.6,2.73-3.22,5.44-4.83,8.17l-3.81,6.48c-1.81,3.1-3.61,6.22-5.42,9.33-1.16,2-2.34,3.93-3.5,5.9A1.63,1.63,0,0,1,628.72,187.42Z"/><path class="cls-12" d="M711.57,563.87h23.26c.76,0,1.53,0,2.29.06a.81.81,0,0,1,.66,1.2,11.57,11.57,0,0,1-.58,1.17q-4.37,7.47-8.74,14.93c-2.49,4.22-5,8.41-7.49,12.63-2,3.38-3.91,6.79-5.87,10.18-1,1.7-1.94,3.41-3,5.07a1.25,1.25,0,0,1-2.17,0c-1.67-2.81-3.3-5.63-5-8.45q-4.2-7.18-8.4-14.37c-2-3.49-4-7-6-10.49-1.85-3.2-3.73-6.39-5.59-9.59a4.49,4.49,0,0,1-.55-1.15.8.8,0,0,1,.6-1,17.3,17.3,0,0,1,2.6-.17Z"/><path class="cls-4" d="M492,141.69c.67-.81,1.6-.53,2.44-.53,5.78,0,11.56,0,17.34,0h30.75c1.31,0,2.61-.06,3.92-.09-.22,1.92-1.61,3.28-2.48,4.87-2,3.62-4.12,7.17-6.2,10.75-2.53,4.32-5.08,8.63-7.6,12.95-2,3.48-4,7-6.07,10.45-1.27,2.15-2.58,4.29-3.93,6.4a1,1,0,0,1-1.84-.07c-1.47-2.42-2.93-4.84-4.35-7.29-2.69-4.6-5.36-9.23-8-13.84-2.08-3.58-4.13-7.17-6.24-10.73C497.11,150.25,494.52,146,492,141.69Z"/><path class="cls-4" d="M874.77,140.47a1.47,1.47,0,0,1,.55,1.35c-1.46,1.52-2.15,3.52-3.22,5.27-3.81,6.21-7.46,12.53-11.12,18.84-3.55,6.12-7,12.28-10.56,18.42-.22.38-.45.74-.7,1.1-1.48,2.17-1.8,2.14-3.25-.21-3.2-5.2-6.25-10.47-9.24-15.79-2.45-4.36-5.14-8.59-7.68-12.9s-4.92-8.48-7.36-12.72a7.55,7.55,0,0,1-.53-1.2,1,1,0,0,1,.9-1.4c1-.07,2-.07,3-.07q22.93,0,45.86,0C872.53,141.14,873.8,141.53,874.77,140.47Z"/><path class="cls-13" d="M602.25,515.94l-.65.66c-1.76-1.7-2.68-4-3.92-6-3.13-5.12-6.11-10.32-9.11-15.51-3.55-6.14-7-12.31-10.59-18.45-.92-1.61-2-3.16-2.89-4.75-.59-1-.22-1.77.85-1.86.66-.05,1.31,0,2,0q23.79,0,47.59,0c.9,0,2.15-.51,2.64.6.37.81-.48,1.57-.91,2.32-2.76,4.7-5.49,9.42-8.24,14.13-2.48,4.23-5,8.46-7.46,12.69q-3.13,5.37-6.23,10.76C604.27,512.32,603.27,514.13,602.25,515.94Z"/><path class="cls-14" d="M437.07,470c8,0,16,0,23.94,0,.83,0,1.88-.36,2.42.52s-.21,1.89-.71,2.68q-4.56,7.36-8.74,14.95c-1.3,2.39-2.77,4.69-4.15,7q-3.39,5.78-6.76,11.57c-1.65,2.82-3.29,5.65-4.95,8.47a1,1,0,0,1-1.85,0c-.85-1.26-1.63-2.58-2.4-3.89-2.2-3.76-4.38-7.53-6.59-11.29-1.54-2.63-3.12-5.25-4.67-7.87l-3.81-6.48c-1.87-3.19-3.76-6.38-5.62-9.58-1-1.7-2-3.4-2.89-5.13a.63.63,0,0,1,.54-.95,20.72,20.72,0,0,1,2.62-.1Z"/><path class="cls-15" d="M820.21,516c-1.52-1.73-2.37-3.87-3.54-5.81-3.54-5.86-7-11.78-10.42-17.69q-6.13-10.56-12.22-21.16a1.83,1.83,0,0,1-.1-.64,3.53,3.53,0,0,1,1.12-.58,22.69,22.69,0,0,1,2.61-.07h46.21c.87,0,1.74,0,2.62,0s1.22.58.81,1.28q-5.81,9.84-11.61,19.68c-1.05,1.78-2.06,3.59-3.09,5.39l-5.35,9.35c-1.63,2.83-3.29,5.64-4.88,8.49C821.86,515.13,821.38,515.94,820.21,516Z"/><path class="cls-12" d="M930.59,470h23.29a20.8,20.8,0,0,1,2.62.11.63.63,0,0,1,.51,1q-2.32,4.13-4.72,8.21-4.18,7.21-8.41,14.39c-2.48,4.23-5,8.45-7.46,12.68q-1.81,3.11-3.61,6.21c-.22.38-.39.79-.62,1.16-1.81,2.88-2.24,2.83-4-.24-1.49-2.66-3.08-5.27-4.63-7.89-1.28-2.16-2.57-4.3-3.83-6.47-1.81-3.11-3.59-6.23-5.4-9.34-1.26-2.17-2.56-4.31-3.83-6.47q-2.91-4.92-5.79-9.86a17.65,17.65,0,0,1-1-2,1,1,0,0,1,1-1.37c.87-.06,1.75-.06,2.62-.07Z"/><path class="cls-13" d="M409.92,281.67c0,.2,0,.4,0,.59s0,.44,0,.66a5.38,5.38,0,0,0-2.13,2.39c-1.95,3.52-3.92,7-5.95,10.49-2.52,4.31-5.14,8.57-7.68,12.87-3,5.05-6,10.1-8.87,15.2a15.86,15.86,0,0,0-2.26,5h-.54c-1.27-.95-1.77-2.46-2.54-3.74-3.32-5.49-6.46-11.09-9.71-16.63-3.51-6-7.08-12-10.59-18-1.31-2.26-2.54-4.57-3.76-6.87-.39-.75-.05-1.3.77-1.35,1-.05,2,0,2.95,0h38.63a29.21,29.21,0,0,0,5.18-.43A41.72,41.72,0,0,1,409.92,281.67Z"/><path class="cls-12" d="M601.37,657.73H577.45c-3,0-3.17-.34-1.72-2.82,3.8-6.48,7.62-12.95,11.39-19.45,3.55-6.12,7-12.28,10.55-18.42.7-1.23,1.42-2.45,2.18-3.64a4.8,4.8,0,0,1,1.11-1.18,1,1,0,0,1,1.45.18,12.74,12.74,0,0,1,.85,1.38c2.81,4.79,5.63,9.57,8.41,14.37,2,3.49,4,7,6,10.5,2.52,4.32,5.1,8.61,7.63,12.93q1.49,2.53,2.87,5.13c.27.51-.16.88-.59.93a22.69,22.69,0,0,1-2.61.08Z"/><path class="cls-13" d="M984.93,657.74h-23.3c-.87,0-1.75,0-2.62-.06a.8.8,0,0,1-.61-1.22c.29-.58.64-1.14,1-1.7q4.11-7.08,8.22-14.14c2.48-4.24,5-8.46,7.46-12.69,2-3.49,4.05-7,6.07-10.48.93-1.6,1.84-3.21,2.81-4.8a1.11,1.11,0,0,1,1.9-.24A9.36,9.36,0,0,1,987,614q6.78,11.56,13.55,23.15c3.19,5.46,6.43,10.9,9.5,16.42,2.4,4.32,2.48,4.21-2.46,4.2C1000,657.72,992.48,657.74,984.93,657.74Z"/><path class="cls-5" d="M491.34,235l-53.86,0a4,4,0,0,1,.77-2.12c3.42-5.81,6.89-11.6,10.29-17.43,4.17-7.14,8.29-14.31,12.43-21.47,1.19-2.06,2.73-4,3-6.44l.84,0a7,7,0,0,0,.88,2.77q4.78,8.18,9.55,16.35c2.69,4.6,5.42,9.18,8.11,13.78s5.35,9.22,8,13.83C491.4,234.57,491.37,234.79,491.34,235Z"/><path class="cls-14" d="M327.05,657.73H303.76a20.64,20.64,0,0,1-2.61-.12.64.64,0,0,1-.47-1c1.56-2.75,3.15-5.48,4.74-8.21q4.2-7.2,8.41-14.39c1.54-2.63,3.13-5.24,4.67-7.87,1.43-2.45,2.8-4.92,4.25-7.36q1.9-3.24,3.94-6.4c.49-.75,1.36-.65,1.84.17q2.49,4.23,5,8.47c2.68,4.62,5.34,9.24,8,13.86q3.19,5.52,6.4,11c1.86,3.2,3.74,6.39,5.61,9.58a9.13,9.13,0,0,1,.47.86,1.06,1.06,0,0,1-.7,1.29c-.87.07-1.74.09-2.62.09Z"/><path class="cls-17" d="M903.5,282.16c2,0,3.92.07,5.88.07h43.44c1.3,0,2.61-.05,3.91-.07l.65.1,0,.05c0,.19,0,.38,0,.57-1.84,3.08-3.71,6.15-5.53,9.24q-4.23,7.19-8.41,14.39c-2.69,4.61-5.35,9.24-8,13.86q-2.14,3.66-4.31,7.32a1.47,1.47,0,0,1-.95.82c-.55-.21-.77-.72-1-1.19-2.91-5-5.84-10-8.73-15-3.56-6.13-7.08-12.27-10.63-18.4-1.86-3.2-3.76-6.38-5.62-9.58-.27-.47-.46-1-.69-1.47C903.44,282.66,903.47,282.41,903.5,282.16Z"/><path class="cls-12" d="M382.63,376.14h23.29a25.34,25.34,0,0,1,2.6.15.56.56,0,0,1,.46.73,5.34,5.34,0,0,1-.62,1.5c-3.13,5-6,10.09-8.92,15.23-2.45,4.36-5.16,8.58-7.69,12.91-2.7,4.6-5.33,9.26-8,13.89a8.79,8.79,0,0,1-.51.83,1,1,0,0,1-1.68.09c-.7-1-1.37-2-2-3q-6.42-10.83-12.8-21.67c-2.64-4.52-5.18-9.09-7.83-13.6a46.19,46.19,0,0,1-3.13-5.74c-.31-.75,0-1.26.87-1.3s1.75,0,2.63,0Z"/><path class="cls-12" d="M875.33,376.14h23c.77,0,1.53,0,2.3,0,1.42.06,1.64.49,1,1.89-.14.3-.28.59-.44.88-2.75,4.7-5.51,9.4-8.24,14.11-2,3.4-3.91,6.81-5.88,10.2-1.58,2.74-3.2,5.46-4.79,8.19s-3,5.28-4.58,7.92c-.27.48-.49,1-.8,1.43-1.07,1.51-2,1.45-2.93-.14-3-5.17-6.07-10.33-9.07-15.52-3.54-6.14-7-12.31-10.57-18.44-1.53-2.64-3.18-5.21-4.77-7.81a14.17,14.17,0,0,1-.76-1.44.8.8,0,0,1,.63-1.21c.87-.06,1.75-.07,2.62-.07Z"/><path class="cls-1" d="M902.86,189.08l.6.08q6.79,11.75,13.6,23.48c4.23,7.25,8.5,14.49,12.74,21.73a1.34,1.34,0,0,0,0,.63l-.09.1c-1.53,0-3.06-.07-4.59-.07h-45c-1,0-2,0-2.95,0s-1.16-.55-.86-1.31c1-2.57,2.62-4.78,4-7.16,2.13-3.81,4.36-7.55,6.56-11.31,2.48-4.23,5-8.44,7.47-12.68q3.06-5.22,6-10.48C901.05,190.9,901.56,189.67,902.86,189.08Z"/><path class="cls-12" d="M491.93,657.73H469c-.76,0-1.53,0-2.29,0-1.3-.05-1.6-.49-1.08-1.61a51.16,51.16,0,0,1,2.52-4.59c3.88-6.44,7.63-13,11.42-19.45q4.55-7.75,9.08-15.52c.43-.75.78-1.56,1.19-2.33a10.39,10.39,0,0,1,.86-1.39c.91-1.16,1.83-1.1,2.56.15,1,1.7,1.91,3.43,2.9,5.12,3.58,6.11,7.2,12.2,10.77,18.31,2.64,4.52,5.21,9.08,7.83,13.61,1.25,2.17,2.53,4.33,3.78,6.5a.77.77,0,0,1-.66,1.16c-.87.05-1.75.06-2.62.06Z"/><path class="cls-6" d="M574.68,95.22a1.41,1.41,0,0,1,1.09-.61q1.14,0,2.28,0,23.16,0,46.33,0a25,25,0,0,1,2.6.07c.65.07.78.67.88,1.21L610.4,125.91c-2.36,4.06-4.71,8.14-7.11,12.18-.54.91-.85,2-1.84,2.61a3.3,3.3,0,0,1-1.23-1.54q-12.65-21.66-25.28-43.34A4.53,4.53,0,0,1,574.68,95.22Z"/><path class="cls-12" d="M820.84,282.28h22.62c.87,0,1.75,0,2.62.08a1,1,0,0,1,.81,1.46,14.44,14.44,0,0,1-1,2.07Q842.4,292,838.83,298c-1.26,2.16-2.55,4.3-3.81,6.47q-2.71,4.65-5.41,9.32c-1.42,2.45-2.81,4.92-4.25,7.35-1.28,2.16-2.6,4.29-3.93,6.4a.81.81,0,0,1-1.38.1,7.63,7.63,0,0,1-1.21-1.52c-3.49-6-6.92-12.1-10.43-18.13-2.46-4.23-5-8.4-7.52-12.62-2.23-3.74-4.42-7.51-6.61-11.27-.55-.94-.11-1.74,1-1.81.87-.05,1.74,0,2.62,0Z"/><path class="cls-13" d="M957.34,282.88c0-.19,0-.38,0-.57l32-.05,22.53,0,0,.72c-2.78,4.81-5.54,9.63-8.33,14.44-1.2,2.08-2.45,4.12-3.65,6.2-1.75,3-3.47,6.05-5.22,9.06q-3.45,5.94-6.92,11.86c-.55.94-1.12,1.87-1.74,2.77-.74,1.07-1.56,1-2.27-.16-.17-.28-.29-.59-.46-.87-2.8-4.8-5.63-9.59-8.41-14.39-2-3.49-4-7-6-10.5-2.46-4.24-5-8.46-7.43-12.69-.66-1.13-1.33-2.26-1.93-3.42A5,5,0,0,0,957.34,282.88Z"/><path class="cls-12" d="M354.78,705H378.4c.77,0,1.53,0,2.3.06a.8.8,0,0,1,.64,1.21,17.84,17.84,0,0,1-1,2.07c-2.51,4.21-5.08,8.38-7.56,12.61-2,3.48-4,7-6,10.52-2.53,4.32-5.13,8.61-7.68,12.92a56.42,56.42,0,0,1-3.09,5.39c-.94,1.24-1.8,1.31-2.46,0-1.41-2.84-3.15-5.48-4.76-8.2-3.66-6.18-7.21-12.44-10.89-18.62-3.11-5.24-6-10.61-9.27-15.78a7.17,7.17,0,0,1-.41-.89.82.82,0,0,1,.62-1.23c.87,0,1.75-.06,2.62-.06Z"/><path class="cls-12" d="M519.22,328.88H496.61c-.87,0-1.75,0-2.62,0-1.1-.07-1.55-.87-1-1.8,3.26-5.54,6.55-11.05,9.79-16.59,2-3.48,4-7,6-10.5q4.5-7.77,9.06-15.51a11.38,11.38,0,0,1,.7-1.1,1,1,0,0,1,1.44,0c.77,1.18,1.53,2.37,2.25,3.59,3,5.16,6.08,10.32,9.07,15.5,3.54,6.13,7,12.29,10.55,18.42.87,1.51,1.83,3,2.72,4.46a17.67,17.67,0,0,1,1.06,2,1,1,0,0,1-.82,1.45c-.87.07-1.75.08-2.62.08Z"/><path class="cls-5" d="M820.84,235a10.74,10.74,0,0,1-2.08-2.89l-13.38-22.88c-3.24-5.56-6.49-11.11-9.68-16.7-.74-1.31-1.69-2.57-1.82-4.16,1.3,0,2.61.06,3.91.07l49.94,0c-2.41,5-5.48,9.63-8.23,14.45s-5.59,9.57-8.38,14.36Q826,226.12,820.81,235Z"/><path class="cls-15" d="M383,328.9a15.86,15.86,0,0,1,2.26-5c2.9-5.1,5.89-10.15,8.87-15.2,2.54-4.3,5.16-8.56,7.68-12.87,2-3.47,4-7,5.95-10.49a5.38,5.38,0,0,1,2.13-2.39,64,64,0,0,1,4.83,7.69c3,4.92,5.87,9.91,8.75,14.89,2,3.47,3.95,7,6,10.48q2.77,4.8,5.65,9.53a5.68,5.68,0,0,1,1.12,3.34c-6.1,0-12.19,0-18.28,0Q400.46,328.92,383,328.9Z"/><path class="cls-4" d="M847.73,188.44l-49.94,0c-1.3,0-2.61,0-3.91-.07,0-.22,0-.44,0-.66l0,0,49.84,0c1,0,2,0,2.95,0A1.34,1.34,0,0,1,847.73,188.44Z"/><path class="cls-16" d="M1026.24,306a1.28,1.28,0,0,1,.68,1.19A1.19,1.19,0,0,1,1026.24,306Z"/><path class="cls-13" d="M1030.84,313.91a1.3,1.3,0,0,1,.68,1.19A1.18,1.18,0,0,1,1030.84,313.91Z"/><path class="cls-13" d="M1032.79,317.24a1.23,1.23,0,0,1,.66,1.14A1.17,1.17,0,0,1,1032.79,317.24Z"/><path class="cls-13" d="M1035.43,321.79a1.27,1.27,0,0,1,.68,1.18A1.19,1.19,0,0,1,1035.43,321.79Z"/><path class="cls-18" d="M903.5,282.16c0,.25-.06.5-.1.75-.27-.18-.48-.42-.36-.75S903.33,282,903.5,282.16Z"/><path class="cls-16" d="M1017.05,290.28a1.28,1.28,0,0,1,.68,1.19A1.21,1.21,0,0,1,1017.05,290.28Z"/><path class="cls-16" d="M1014.41,285.74a1.21,1.21,0,0,1,.66,1.13A1.15,1.15,0,0,1,1014.41,285.74Z"/><path class="cls-16" d="M1021.65,298.16a1.28,1.28,0,0,1,.68,1.18A1.17,1.17,0,0,1,1021.65,298.16Z"/><path class="cls-19" d="M301,280.33a.66.66,0,0,1,.48-.71A.65.65,0,0,1,301,280.33Z"/><path class="cls-16" d="M1023.75,301.83a.8.8,0,0,1,.51.8A.83.83,0,0,1,1023.75,301.83Z"/><path class="cls-16" d="M1025.69,305.16a.75.75,0,0,1,.5.77A.8.8,0,0,1,1025.69,305.16Z"/><path class="cls-18" d="M957.38,282.26l-.65-.1C957,281.83,957.21,281.93,957.38,282.26Z"/><path class="cls-16" d="M1027.64,308.48a.66.66,0,0,1,.47.71A.72.72,0,0,1,1027.64,308.48Z"/><path class="cls-13" d="M1032.24,316.36a.67.67,0,0,1,.47.74A.76.76,0,0,1,1032.24,316.36Z"/><path class="cls-13" d="M1034.89,320.91a.76.76,0,0,1,.49.77A.76.76,0,0,1,1034.89,320.91Z"/><path class="cls-13" d="M1036.83,324.24a.65.65,0,0,1,.47.71A.72.72,0,0,1,1036.83,324.24Z"/><path class="cls-13" d="M1037.53,325.46a.79.79,0,0,1,.51.8A.84.84,0,0,1,1037.53,325.46Z"/><path class="cls-4" d="M491.29,142.45a.78.78,0,0,1,.61-.71A.83.83,0,0,1,491.29,142.45Z"/><path class="cls-16" d="M1013.86,284.85a.69.69,0,0,1,.48.74A.76.76,0,0,1,1013.86,284.85Z"/><path class="cls-13" d="M1028.35,309.71a.78.78,0,0,1,.5.79A.8.8,0,0,1,1028.35,309.71Z"/><path class="cls-16" d="M1016.51,289.41a.76.76,0,0,1,.49.77A.78.78,0,0,1,1016.51,289.41Z"/><path class="cls-5" d="M354.14,187.11c.32.16.57.36.44.78h-.24l-.21-.13Z"/><path class="cls-16" d="M1018.45,292.73a.66.66,0,0,1,.47.71A.72.72,0,0,1,1018.45,292.73Z"/><path class="cls-16" d="M1019.16,294a.77.77,0,0,1,.5.79A.8.8,0,0,1,1019.16,294Z"/><path class="cls-16" d="M1021.1,297.28a.77.77,0,0,1,.5.77A.77.77,0,0,1,1021.1,297.28Z"/><path class="cls-16" d="M1023.05,300.61a.63.63,0,0,1,.46.71A.7.7,0,0,1,1023.05,300.61Z"/><path class="cls-13" d="M1030.29,313a.77.77,0,0,1,.5.77A.79.79,0,0,1,1030.29,313Z"/><path class="cls-6" d="M683.35,93.77v.06Q670.66,72,658,50.2c-.53-.91-1.42-1.71-1.22-2.94,1.21,0,2.41.07,3.61.07H702c2.85,0,5.69,0,8.53-.06.11.22.21.44.31.66-2.73,4.59-5.49,9.16-8.19,13.76Q693.84,76.8,685,91.91C684.59,92.63,684.38,93.58,683.35,93.77Z"/><path class="cls-1" d="M627.87,93.8c-.76,0-1.52.12-2.28.13h-49c-.65,0-1.3-.06-1.95-.1.58-2.74,2.49-4.8,3.75-7.2,1.15-2.21,2.52-4.32,3.78-6.48,1.81-3.1,3.6-6.21,5.41-9.32,1.26-2.16,2.53-4.31,3.8-6.47,1.87-3.19,3.69-6.41,5.64-9.56,1.09-1.76,1.75-3.76,3.12-5.35a9.1,9.1,0,0,1,.78-1,.72.72,0,0,1,1.14.1c1.49,2.41,3.06,4.77,4.36,7.28,2.56,4.93,5.61,9.57,8.42,14.36,1.37,2.35,2.63,4.77,4,7.12,1.71,2.9,3.51,5.76,5.21,8.67,1.26,2.16,2.45,4.36,3.62,6.57A3.84,3.84,0,0,1,627.87,93.8Z"/><path class="cls-1" d="M520.1,93.2c1.75-3.12,3.48-6.25,5.25-9.35,2-3.57,4.13-7.13,6.21-10.69L539.31,60c1.82-3.08,3.64-6.17,5.42-9.27A6.11,6.11,0,0,0,545.82,48a1.73,1.73,0,0,1,1.86,1c1.16,2,2.37,3.89,3.53,5.86q4.38,7.44,8.72,14.9,5.31,9.15,10.57,18.34c1.07,1.87,2.5,3.57,3,5.76q-25,0-50,0C522.34,93.88,521.06,94.27,520.1,93.2Z"/><path class="cls-4" d="M300.22,94c.76,0,1.52-.12,2.28-.12h49.73c.65,0,1.3,0,2,.07l0,.69A5.41,5.41,0,0,1,353,97.35c-1,1.82-2,3.62-3.08,5.41-5.07,8.67-10.12,17.35-15.24,26-2.33,3.94-4.4,8-7.08,11.78a1.81,1.81,0,0,1-1.21-1c-3.46-6-6.89-12.1-10.41-18.11-4.07-6.94-8.3-13.79-12.26-20.8C302.54,98.47,301,96.47,300.22,94Z"/><path class="cls-3" d="M327.64,140.54c2.68-3.74,4.75-7.84,7.08-11.78,5.12-8.65,10.17-17.33,15.24-26,1.05-1.79,2.09-3.59,3.08-5.41a5.41,5.41,0,0,0,1.12-2.68l1.31-.24-.08.17c.78,2.65,2.51,4.81,3.82,7.18,2.69,4.86,5.57,9.6,8.38,14.39q3.8,6.48,7.62,13c1.82,3.09,3.64,6.19,5.43,9.31a5.83,5.83,0,0,1,1.09,2.7H327.84A1.72,1.72,0,0,1,327.64,140.54Z"/><path class="cls-1" d="M984.28,47.33c.32-1.08-.31-1.9-.79-2.74q-5.76-9.89-11.56-19.76Q965.57,14,959.24,3.06c-.43-.75-.78-1.55-1.16-2.33,7.54,0,15.09,0,22.63,0q15.59,0,31.17,0a5.44,5.44,0,0,1-1,2.39q-7.18,12.33-14.4,24.63-5.12,8.77-10.22,17.57c-1,1.79-.32,2,1,2,.87,0,1.75,0,2.62,0l49.54,0a9.5,9.5,0,0,1-1.71,3.85c-2.83,4.91-5.7,9.78-8.57,14.66-2.48,4.23-5,8.44-7.45,12.67q-4,6.9-8,13.83a9,9,0,0,0-.56,1.53l-1.12-.08c-.5-1-1-2-1.52-2.89Q1001.79,76,993.11,61.12l-6.93-11.9c-.39-.67-.75-1.36-1.73-1.12Z"/><path class="cls-4" d="M491.47,47.43a1.8,1.8,0,0,0-.14.53c-.18.23-.37.46-.55.7-1-1.19-2.46-.7-3.71-.71q-23.58,0-47.16,0c-.66,0-1.31,0-2,0a1.91,1.91,0,0,0-1.89,1c-3,5.07-6,10.12-8.94,15.19-2,3.48-4,7-6.06,10.45q-4,6.91-8,13.83c-1.21,2.06-2.46,4.09-3.7,6.13H357.68c-.76,0-1.52,0-2.29.06l.08-.17a3.52,3.52,0,0,1,.64-2.48c2-3.12,3.6-6.49,5.55-9.62,4.31-6.94,8.18-14.13,12.4-21.12,2.37-3.91,4.62-7.9,6.91-11.85a1.26,1.26,0,0,0,0-1.4H331.9a15.75,15.75,0,0,0-2.28.07,3.56,3.56,0,0,0-1.11.6,1.41,1.41,0,0,1-.6-1.45l54.18,0c1.1,0,2.19.08,3.28.08h48.18c1.29,0,2.64.22,3.78-.68a1.48,1.48,0,0,0,1.41.61h5.55l47,.05Z"/><path class="cls-3" d="M327.22,47.27A63,63,0,0,1,323,55c-4.93,8.48-9.93,16.91-14.88,25.37-2,3.39-3.88,6.82-5.83,10.22a5.82,5.82,0,0,1-1.55,2c-.57,0-.44-.44-.44-.71q0-21.76,0-43.55c0-.33,0-.65.06-1Z"/><path class="cls-1" d="M984.45,48.1c1-.24,1.34.45,1.73,1.12l6.93,11.9q8.67,14.87,17.34,29.74c.54.94,1,1.93,1.52,2.89l-.12,1.45c-3.32,5.76-6.62,11.52-10,17.26-5,8.45-10,16.88-14.89,25.35a8.42,8.42,0,0,0-1.45,3.26,3.49,3.49,0,0,0,.79,2.42q7.93,13.57,15.86,27.14c2.75,4.71,5.48,9.43,8.23,14.14.55.94,1.12,1.87,1.69,2.81a2.38,2.38,0,0,0,1.64,1c2.5,4.44,5,8.91,7.53,13.33,2.82,4.9,5.71,9.76,8.58,14.64s5.85,9.93,8.73,14.93a7.56,7.56,0,0,1,1.49,3.57l-55.22,0c-.44-.87-.84-1.77-1.33-2.61q-11.49-19.74-23-39.45c-.92-1.57-1.55-3.36-3-4.6-1.08-.8-2.33-.44-3.5-.45q-23.29,0-46.59,0c-1,0-2,0-2.95-.05a.75.75,0,0,1-.61-1.17c.68-1.24,1.39-2.47,2.11-3.7q8.35-14.3,16.71-28.59c2.42-4.16,4.8-8.34,7.19-12.51l.66-.68h50.11a21.9,21.9,0,0,0,2.92-.17.8.8,0,0,0,.61-1,4.53,4.53,0,0,0-.57-1.51c-1.69-2.66-3.22-5.43-4.78-8.17-3.39-5.95-6.92-11.83-10.43-17.71-3.34-5.61-6.37-11.4-10-16.84A4.38,4.38,0,0,1,958,94.5c0-.23,0-.47,0-.7q10.24-17.61,20.51-35.23C980.49,55.1,982.46,51.59,984.45,48.1Z"/><path class="cls-5" d="M985.53,141.07a8.42,8.42,0,0,1,1.45-3.26c4.94-8.47,9.94-16.9,14.89-25.35,3.36-5.74,6.66-11.5,10-17.26a2,2,0,0,1,1.86,1.12q2.52,4.4,5.06,8.78c1.8,3.11,3.62,6.21,5.43,9.32,1.27,2.16,2.52,4.33,3.79,6.49,1.81,3.1,3.66,6.19,5.44,9.31,2,3.59,4,7.21,6,10.82-.76,0-1.53.11-2.29.11h-49.7C986.84,141.15,986.18,141.1,985.53,141.07Z"/><path class="cls-1" d="M1066.81,281a3.53,3.53,0,0,1-1.12.58,22.69,22.69,0,0,1-2.61.06h-45.56c-.87,0-1.75,0-2.62,0s-1.21-.57-.8-1.28c3.26-5.53,6.54-11.05,9.77-16.6,2-3.39,3.86-6.83,5.82-10.22q4.8-8.35,9.65-16.68a2.59,2.59,0,0,1,1.17-1.1c4.32,7.33,8.67,14.64,13,22,3.58,6.12,7.09,12.28,10.62,18.43C1065,277.72,1065.9,279.34,1066.81,281Z"/><path class="cls-3" d="M957.48,188.33c1.45,1.24,2.08,3,3,4.6q11.58,19.69,23,39.45c.49.84.89,1.74,1.33,2.61-3.28,0-6.55.06-9.83.06H932.44c-.87,0-1.75,0-2.62-.05a1.34,1.34,0,0,1,0-.63c.93,0,1.28-.67,1.68-1.35q5.52-9.45,11.07-18.91c3.53-6,7.16-12,10.57-18.06,1.38-2.47,3.11-4.75,4-7.47Z"/><path class="cls-20" d="M328.51,48.63a3.56,3.56,0,0,1,1.11-.6A15.75,15.75,0,0,1,331.9,48H381a1.26,1.26,0,0,1,0,1.4c-2.29,4-4.54,7.94-6.91,11.85-4.22,7-8.09,14.18-12.4,21.12-2,3.13-3.54,6.5-5.55,9.62a3.52,3.52,0,0,0-.64,2.48l-1.31.24,0-.69a6.37,6.37,0,0,0-1.2-3c-1.79-3.11-3.64-6.19-5.45-9.29-2-3.48-4-7-6-10.46-2.58-4.41-5.26-8.77-7.75-13.23C332,54.87,329.92,51.93,328.51,48.63Z"/><path class="cls-6" d="M984.45,48.1c-2,3.49-4,7-6,10.47Q968.22,76.19,958,93.8l-1.3-.28a16.23,16.23,0,0,0-.83-2.11c-2-3.6-4.09-7.2-6.17-10.77-2.48-4.23-5-8.42-7.48-12.65-3.5-6-7-12.08-10.44-18.12-.39-.69-.82-1.3-1.72-1.3,0-.33.07-.65.1-1a.55.55,0,0,0,.35-.33H981c1.1,0,2.19,0,3.28.06C984.34,47.59,984.39,47.85,984.45,48.1Z"/><path class="cls-1" d="M710.57,141.15H656.69c-.05-.84.51-1.41.89-2.06q13-22.29,26-44.57l50.1,0c.55,0,1.09,0,1.64,0,2.47.06,3.13-.55,4.89,2.69,3.69,6.78,7.71,13.39,11.61,20,2.48,4.22,5,8.41,7.5,12.63q2.65,4.5,5.24,9a8.69,8.69,0,0,1,.51,1.54c-.37.21-.72.56-1.1.6a20.74,20.74,0,0,1-2.62.07Z"/><path class="cls-1" d="M766.36,142.47c1.64,2.69,3.33,5.36,4.93,8.09q10.49,18,20.94,35.95a7.55,7.55,0,0,1,.45,1.21l-50.54,0c-.44,0-.88,0-1.31,0-1.11-.08-1.58-.81-1.08-1.79.59-1.16,1.31-2.26,2-3.39,3.55-6,7.11-12,10.63-18,2.63-4.52,5.21-9.08,7.83-13.61,1.42-2.45,2.88-4.88,4.31-7.32A2.09,2.09,0,0,1,766.36,142.47Z"/><path class="cls-20" d="M958,94.5a4.38,4.38,0,0,0,.38,1.24c3.61,5.44,6.64,11.23,10,16.84,3.51,5.88,7,11.76,10.43,17.71,1.56,2.74,3.09,5.51,4.78,8.17a4.53,4.53,0,0,1,.57,1.51.8.8,0,0,1-.61,1,21.9,21.9,0,0,1-2.92.17H930.5a36.48,36.48,0,0,1,3.17-5.7c3.44-5.94,7-11.82,10.44-17.75,3.56-6.12,7-12.31,10.62-18.4C955.72,97.66,956.33,95.7,958,94.5Z"/><path class="cls-4" d="M929.79,141.25c-.76,0-1.53-.09-2.29-.09H877.63c-.55,0-1.1,0-1.64,0a3.88,3.88,0,0,1,.73-2.14c3.43-5.81,6.91-11.59,10.31-17.42,3.56-6.11,7-12.28,10.56-18.41,1.42-2.45,2.91-7.51,4.41-9.92a1.08,1.08,0,0,1,1.89,0,6.42,6.42,0,0,1,.34.56c3.47,6,6.88,14.73,10.39,20.75,2.52,4.33,5.14,8.59,7.68,12.91s4.9,8.48,7.33,12.73A3,3,0,0,1,929.79,141.25Z"/><path class="cls-1" d="M849,93.76a4.31,4.31,0,0,1,.52-1.87c3.28-5.54,6.57-11.07,9.81-16.63,3.56-6.13,7.05-12.3,10.63-18.42,1.75-3,3.63-5.93,5.45-8.89a2.86,2.86,0,0,1,1.3,1.4c5.17,8.84,10.42,17.65,15.5,26.54,3,5.29,6,10.61,9.25,15.8a6.4,6.4,0,0,1,.52,1.2.67.67,0,0,1-.57,1,11.6,11.6,0,0,1-2,.1H851.24C850.48,93.93,849.72,93.82,849,93.76Z"/><path class="cls-8" d="M930,48.57c.9,0,1.33.61,1.72,1.3,3.48,6,6.94,12.09,10.44,18.12,2.46,4.23,5,8.42,7.48,12.65,2.08,3.57,4.13,7.17,6.17,10.77a16.23,16.23,0,0,1,.83,2.11,3.07,3.07,0,0,1-2.19.42H906c-.44,0-.87,0-1.31,0-.84-.07-1.2-.6-.81-1.32,1-1.91,2.09-3.82,3.19-5.69,3.46-5.92,7-11.82,10.43-17.73q5.7-9.72,11.37-19.45A2.13,2.13,0,0,1,930,48.57Z"/><path class="cls-6" d="M465,94.67c0,1.17.84,2,1.38,2.91l23.68,40.61c.44.75.84,1.52,1.26,2.28a1.39,1.39,0,0,1-1.08.64c-.66,0-1.31,0-2,0H439.19c-.54,0-1.09,0-1.63,0-.06-.22-.11-.43-.16-.64l24.18-41.42c.71-1.22,1.45-2.43,2.14-3.66A1.27,1.27,0,0,1,465,94.67Z"/><path class="cls-1" d="M465,94.67a1.27,1.27,0,0,0-1.32.72c-.69,1.23-1.43,2.44-2.14,3.66L437.4,140.47c-1.15.89-2.49.68-3.79.68H383.07c-.46-1.2.3-2,.74-2.75,2-3.5,4.1-7,6.15-10.43q4.23-7.2,8.44-14.4,5-8.49,9.86-17c.39-.66.7-1.36,1.05-2,1.24-2,2.49-4.07,3.7-6.13q4-6.9,8-13.83c2-3.48,4-7,6.06-10.45,3-5.07,6-10.12,8.94-15.19a1.91,1.91,0,0,1,1.89-1c.66,0,1.31,0,2,0q23.58,0,47.16,0c1.25,0,2.66-.48,3.71.71-.82,2.51-2.44,4.61-3.71,6.88-3.41,6.07-7,12-10.54,18-2.87,4.88-5.81,9.72-8.55,14.66-1.05,1.88-2.66,3.5-3,5.76Z"/><path class="cls-5" d="M465,94c.31-2.26,1.92-3.88,3-5.76,2.74-4.94,5.68-9.78,8.55-14.66,3.52-6,7.13-12,10.54-18,1.27-2.27,2.89-4.37,3.71-6.88.18-.24.37-.47.55-.7a1.64,1.64,0,0,1,1.5,1c1.47,2.55,3,5.08,4.47,7.62,3.64,6.21,7.3,12.41,10.93,18.63q4.71,8.05,9.38,16.13a15.91,15.91,0,0,1,.76,1.8,1.87,1.87,0,0,1-1.42.69q-1.31,0-2.61,0H468.93C467.62,93.91,466.32,94,465,94Z"/><path class="cls-6" d="M957.17,188.58c-.94,2.72-2.67,5-4,7.47-3.41,6.08-7,12-10.57,18.06Q937,223.56,931.48,233c-.4.68-.75,1.36-1.68,1.35-4.24-7.24-8.51-14.48-12.74-21.73q-6.82-11.73-13.6-23.48a1.38,1.38,0,0,1,1.08-.63c.76,0,1.53-.05,2.29-.05h47.73C955.43,188.48,956.3,188.55,957.17,188.58Z"/><path class="cls-1" d="M249-.46h.66c-.09,2.23,1.27,3.92,2.26,5.71,1.89,3.42,4,6.73,5.95,10.11,2.35,4,4.61,8.12,7,12.16s4.77,8.05,7.14,12.07c1,1.69,1.9,3.42,2.95,5.07.68,1.07,1.53,1,2.36,0,1.36-1.61,2.07-3.59,3.15-5.36C283,35,285.51,30.7,288,26.37c2-3.49,4-7,6-10.5,2.48-4.23,5-8.43,7.5-12.66a5.83,5.83,0,0,0,1.21-3.67h55.8a6.83,6.83,0,0,0,1.2,3q3.72,6.53,7.49,13c3.62,6.2,7.28,12.38,10.92,18.57,2.15,3.65,4.32,7.3,6.45,11a1.75,1.75,0,0,0,1.51,1v0c0,.22,0,.44,0,.65a3.07,3.07,0,0,0,.65,2.14Q396,64.75,405.26,80.59c2.47,4.24,4.89,8.5,7.34,12.76-.76,0-1.53.06-2.29.07-16.38,0-32.76-.06-49.13.06a4.43,4.43,0,0,1-4.61-2.76,6.36,6.36,0,0,0-.3-.58c-2.61-4.53-5.19-9.08-7.83-13.59-3.51-6-7.07-12-10.59-18-1.71-2.91-3.32-5.87-5.09-8.75-.54-.87-.92-2-2.12-2.35-.1-.22-.21-.44-.31-.67-1-1-2.25-.6-3.4-.6q-23.51,0-47,0a17.32,17.32,0,0,0-2.28.06,3.68,3.68,0,0,0-1.12.56c-.2,1.23.68,2,1.22,2.94q12.67,21.83,25.4,43.63c-1.19.07-2.39.2-3.58.2q-24.17,0-48.34,0c-1.19,0-2.39-.15-3.58-.23A3.61,3.61,0,0,0,247.5,92c-1.17-2.21-2.36-4.41-3.62-6.57-1.7-2.92-3.51-5.77-5.21-8.68-1.38-2.34-2.63-4.76-4-7.11-2.81-4.79-5.86-9.43-8.42-14.36-1.3-2.51-2.88-4.87-4.36-7.28a.73.73,0,0,0-1.14-.1,9.1,9.1,0,0,0-.78,1c-1.37,1.59-2,3.59-3.13,5.35-1.94,3.15-3.76,6.37-5.64,9.56l-3.79,6.47Q204.7,75,202,79.66c-1.26,2.16-2.62,4.26-3.78,6.48-1.25,2.4-3.16,4.46-3.75,7.2a1.21,1.21,0,0,1-.54.15l-.68-.09c-.46-2.19-1.89-3.89-3-5.76Q185,78.45,179.7,69.29c-2.88-5-5.8-9.93-8.71-14.89-1.16-2-2.37-3.9-3.54-5.86a1.72,1.72,0,0,0-1.85-1c-.92-1.14-2.22-.7-3.36-.7q-22.91,0-45.81,0h-2.61a1.79,1.79,0,0,1-1.43-.66,6.4,6.4,0,0,1,1.09-2.7c1.84-3.19,3.73-6.36,5.6-9.54l7.42-12.62c2.19-3.74,4.38-7.48,6.54-11.25,1.4-2.44,2.75-4.92,4.11-7.39A5,5,0,0,0,138-.46h2c-.3,1.68.73,2.92,1.46,4.23,1.31,2.38,2.74,4.7,4.12,7.05,2.87,4.88,5.75,9.75,8.59,14.64,2.69,4.61,5.32,9.25,8,13.86,1,1.79,2.16,3.53,3.23,5.3a1.47,1.47,0,0,0,1.24.91c.13.54.27,1.12.93,1.18.87.08,1.74.09,2.61.09q24.1,0,48.21,0a19.32,19.32,0,0,0,2.29-.08c.27,0,.5-.34.75-.53.25-.35.53-.69.75-1.06q12.69-21.72,25.37-43.45a9.15,9.15,0,0,0,.56-1.49Z"/><path class="cls-11" d="M413.72,187.19a7.21,7.21,0,0,1-1.38,4c-2.48,4.22-5.06,8.39-7.54,12.62-2,3.48-4,7-6,10.51-2.4,4.15-4.84,8.27-7.26,12.41l-4,6.76q-4,6.91-8.05,13.84c-2,3.48-4,7-6.06,10.46q-3.78,6.5-7.58,13c-1.32,2.25-2.62,4.52-4,6.76a28.83,28.83,0,0,1-1.62,2.45,1,1,0,0,1-1.67,0c-1.3-2-2.58-4-3.79-6.11-2.7-4.6-5.35-9.23-8-13.85-2.08-3.58-4.15-7.16-6.24-10.73-2.58-4.42-5.19-8.82-7.78-13.24-.53-.9-.24-1.4.84-1.45.88,0,1.75,0,2.63,0h45.9c1,0,2,0,2.95-.08a1,1,0,0,0,.7-1.52c-1.38-2.35-2.79-4.67-4.16-7q-4.23-7.18-8.41-14.38c-1.76-3-3.49-6-5.24-9.06-2.29-4-4.76-7.82-6.8-11.91-1.07-2.14-2.41-2.71-4.62-2.67-6,.12-12,0-18,0q-15.09,0-30.17,0c-1,0-2.22.37-3.07-.65a8,8,0,0,1,.51-1.54c1.79-3.11,3.63-6.2,5.45-9.3,2.53-4.33,5.08-8.64,7.61-13,2.09-3.58,4.15-7.17,6.23-10.75,1.81-3.1,3.65-6.2,5.43-9.32a5.32,5.32,0,0,0,1-2.72h50.78a20.84,20.84,0,0,0,2.62-.07c.38,0,.73-.39,1.1-.6l1.14,1.36a1,1,0,0,1,.15.62,2.11,2.11,0,0,0-1.87,1.12c-1.44,2.45-2.9,4.88-4.32,7.33-2.62,4.53-5.19,9.09-7.83,13.61-3.51,6-7.08,12-10.62,18-.66,1.12-1.38,2.22-2,3.39-.5,1,0,1.7,1.07,1.79.44,0,.88,0,1.32,0l50.54,0Z"/><path class="cls-1" d="M386,141.35,384.85,140a8.43,8.43,0,0,0-.51-1.54q-2.59-4.53-5.25-9c-2.48-4.22-5-8.41-7.49-12.63-3.91-6.67-7.92-13.27-11.61-20.06-1.76-3.23-2.43-2.62-4.9-2.68-.54,0-1.09,0-1.63,0h-50.1l-.24-.75c1-.19,1.25-1.14,1.67-1.87,5.9-10.06,11.76-20.15,17.66-30.21,2.7-4.6,5.46-9.17,8.19-13.76,1.2.33,1.58,1.48,2.12,2.35,1.77,2.88,3.38,5.84,5.09,8.75,3.52,6,7.08,12,10.59,18,2.64,4.51,5.22,9.06,7.83,13.59a6.36,6.36,0,0,1,.3.58,4.43,4.43,0,0,0,4.61,2.76c16.37-.12,32.75-.06,49.13-.06.76,0,1.53,0,2.29-.07l.22,0,.22.06a3.14,3.14,0,0,1-.19,1c-2.19,3.63-4.44,7.23-6.59,10.89-2.05,3.46-4,7-6,10.48-2.52,4.32-5.09,8.62-7.63,12.93-1.82,3.1-3.64,6.19-5.42,9.31a5.87,5.87,0,0,0-1.06,2.72Z"/><path class="cls-1" d="M139.23,93.52q6.92,11.91,13.81,23.83,6.11,10.5,12.22,21a4.19,4.19,0,0,1,.29.93c-1.3,0-2.61.09-3.92.09H130.88c-5.78,0-11.56,0-17.34,0-.83,0-1.77-.29-2.44.53l0,.05a.79.79,0,0,0-.62.71c-2.51,4.22-5,8.42-7.52,12.65Q93.44,169.55,84,185.8l-.83,0q-13.31-22.84-26.6-45.69c0-.26.09-.52.13-.78.55,0,1.09.05,1.64.05h49.11c.66,0,1.31,0,2-.05a1.39,1.39,0,0,0,1.08-.64c1.55,0,1.81-1.45,2.38-2.39,3.23-5.41,6.37-10.88,9.54-16.34L135,98.22q1.32-2.27,2.6-4.53C138.1,92.86,138.65,93.13,139.23,93.52Z"/><path class="cls-1" d="M111.2,233.85a1.4,1.4,0,0,0,1.13-.57c1.36-2.23,2.79-4.43,4-6.72,2.88-5.26,6-10.38,9.07-15.53,3.63-6.08,7.05-12.29,10.59-18.43.7-1.23,1.48-2.42,2.25-3.6a1,1,0,0,1,1.44,0c.67,1,1.34,2,1.94,3,2.68,4.62,5.31,9.27,8,13.88,2.4,4.15,4.86,8.27,7.28,12.41,2.09,3.57,4.14,7.17,6.25,10.74.83,1.4,1.76,2.74,2.7,4.07a.78.78,0,0,0,1.36-.08c.61-.9,1.22-1.81,1.74-2.76,2.79-5.07,5.73-10,8.75-15,2-3.34,3.89-6.82,5.84-10.22,2.65-4.64,5.23-9.32,8-13.87,2.14-3.47,2.34-3.32,4.44,0s3.89,6.81,5.86,10.21c2.52,4.33,5.09,8.64,7.61,13,2,3.48,4,7,6.07,10.46,1,1.79,2.12,3.56,3.17,5.35.54.94,1.08,1.89,1.55,2.87.37.77,0,1.31-.78,1.35-1,.05-2,0-3,0H115.51l-4.27,0-.12,0Z"/><path class="cls-1" d="M303.12,93.28l.24.75-26,44.57a3.55,3.55,0,0,0-.88,2.06l0,0A3.44,3.44,0,0,1,275,139q-9.19-15.81-18.42-31.58L249.5,95.26c-.57-1-.58-1-1.86.11-.11-.55-.23-1.14-.88-1.21a25.2,25.2,0,0,0-2.61-.07H197.83c-.76,0-1.52,0-2.28,0a1.41,1.41,0,0,0-1.1.61l-.63-.67a2.28,2.28,0,0,0,.1-.57,1.21,1.21,0,0,0,.54-.15c.65,0,1.31.09,2,.1h49c.76,0,1.52-.08,2.27-.12,1.19.08,2.39.23,3.58.23q24.16,0,48.34,0c1.19,0,2.39-.13,3.58-.2Z"/><path class="cls-14" d="M56,328.36a1,1,0,0,1,.26,1.41c-1,1.8-2,3.62-3.06,5.41L39.63,358.34l-8.78,15a7.9,7.9,0,0,1-.8,1,.8.8,0,0,1-1.37-.07,10.29,10.29,0,0,1-.94-1.33c-3.69-6.44-7.36-12.89-11.07-19.31-2.07-3.59-4.22-7.13-6.32-10.7q-4-6.77-7.94-13.54a2.73,2.73,0,0,1-.17-1H37.7Z"/><path class="cls-16" d="M221.28,281.78H198.67c-.66,0-1.31,0-2,0-2.4.1-2.57-.92-1.46-2.8,3.37-5.73,6.79-11.42,10.15-17.15,2.64-4.51,5.21-9.06,7.83-13.58q3.43-5.94,6.91-11.85a2.84,2.84,0,0,1,.61-.76.74.74,0,0,1,1.14.1c.83,1.28,1.6,2.6,2.37,3.91,2.87,4.88,5.75,9.75,8.59,14.65,2,3.49,4,7,6,10.5,2.46,4.24,5,8.45,7.45,12.67.34.56.71,1.1,1,1.68,1.22,2.34,1.09,2.61-1.44,2.62Q233.57,281.8,221.28,281.78Z"/><path class="cls-21" d="M57.26,235.84v-1.29l53.86,0,.12,0c-.11,2-1.5,3.36-2.38,4.95-2.14,3.92-4.46,7.74-6.71,11.59L94.88,263.5c-2.14,3.66-4.25,7.35-6.41,11-1.16,2-2.4,3.89-3.58,5.85a1.58,1.58,0,0,1-1.35.76,6.84,6.84,0,0,0-1.3-2.94q-3.92-6.58-7.77-13.2c-2-3.47-4-7-6-10.43-2.72-4.7-5.43-9.41-8.2-14.08A26.8,26.8,0,0,0,57.26,235.84Z"/><path class="cls-22" d="M57.26,235.84a26.8,26.8,0,0,1,3,4.63c2.77,4.67,5.48,9.38,8.2,14.08,2,3.47,4,7,6,10.43q3.86,6.61,7.77,13.2a6.84,6.84,0,0,1,1.3,2.94,4,4,0,0,1-1.11.6,11.61,11.61,0,0,1-2,.06H29.69c0-.19,0-.39,0-.59L35.56,271l6.2-10.72q3.69-6.35,7.39-12.66c2-3.37,4-6.72,6-10.11C55.62,236.65,56.1,235.85,57.26,235.84Z"/><path class="cls-8" d="M248.5,186.93a8.37,8.37,0,0,1-2.07-2.79c-3.57-6.12-7-12.3-10.59-18.43-2.46-4.24-5-8.41-7.54-12.63-1.72-2.91-3.4-5.85-5.08-8.77-.27-.48-.51-1-.73-1.47-.66-1.51-.35-2.09,1.19-2.16.76,0,1.53,0,2.3,0h45.28c.77,0,1.54,0,2.3,0,1.54.07,1.87.66,1.19,2.15-.41.89-.9,1.75-1.39,2.6q-3.11,5.38-6.24,10.75c-1.59,2.73-3.21,5.44-4.82,8.17-1.27,2.15-2.55,4.31-3.81,6.48-1.81,3.1-3.61,6.22-5.43,9.33-1.15,2-2.33,3.93-3.5,5.9A1.59,1.59,0,0,1,248.5,186.93Z"/><path class="cls-8" d="M111.72,141.2c.68-.82,1.61-.53,2.45-.53,5.78,0,11.56,0,17.34,0h30.75c1.3,0,2.61-.05,3.92-.09-.22,1.93-1.61,3.28-2.48,4.88-2,3.62-4.12,7.17-6.21,10.74-2.52,4.33-5.07,8.64-7.6,13-2,3.48-4,7-6.06,10.45-1.28,2.15-2.58,4.29-3.93,6.4a1,1,0,0,1-1.84-.07c-1.47-2.42-2.93-4.85-4.36-7.29-2.69-4.61-5.35-9.23-8-13.84-2.07-3.58-4.13-7.17-6.23-10.73C116.89,149.76,114.3,145.48,111.72,141.2Z"/><path class="cls-8" d="M111.12,234.53l-53.86,0a4,4,0,0,1,.77-2.12c3.42-5.82,6.89-11.6,10.29-17.43,4.17-7.14,8.29-14.31,12.43-21.47,1.19-2.06,2.73-4,3-6.44l.83,0a7,7,0,0,0,.89,2.78q4.77,8.18,9.54,16.35c2.7,4.6,5.43,9.18,8.11,13.78s5.36,9.22,8,13.83C111.17,234.08,111.15,234.3,111.12,234.53Z"/><path class="cls-6" d="M194.45,94.73a1.41,1.41,0,0,1,1.1-.61c.76,0,1.52,0,2.28,0h46.32a25.2,25.2,0,0,1,2.61.07c.65.07.77.66.88,1.21l-17.46,30.05c-2.36,4.06-4.71,8.14-7.11,12.18-.54.9-.85,2-1.84,2.61a3.3,3.3,0,0,1-1.23-1.54Q207.34,117,194.71,95.33A6.39,6.39,0,0,1,194.45,94.73Z"/><path class="cls-15" d="M139,328.39H116.39c-.88,0-1.75,0-2.62,0-1.1-.07-1.56-.87-1-1.8,3.25-5.54,6.55-11.05,9.79-16.59,2-3.48,4-7,6-10.5q4.5-7.79,9.05-15.51a10.27,10.27,0,0,1,.7-1.1,1,1,0,0,1,1.45,0c.77,1.18,1.53,2.37,2.25,3.59,3,5.16,6.07,10.32,9.07,15.5,3.54,6.13,7,12.29,10.55,18.42.87,1.51,1.82,3,2.72,4.46a19.41,19.41,0,0,1,1.06,2,1,1,0,0,1-.82,1.45c-.87.07-1.75.08-2.62.08Z"/><path class="cls-14" d="M2.78,328.41a15.8,15.8,0,0,1,2.26-5c2.9-5.09,5.89-10.14,8.87-15.19,2.54-4.3,5.16-8.56,7.68-12.87,2-3.47,4-7,5.94-10.49a5.46,5.46,0,0,1,2.14-2.39,64,64,0,0,1,4.83,7.69c3,4.92,5.87,9.91,8.75,14.89,2,3.47,3.94,7,6,10.48,1.84,3.2,3.74,6.37,5.64,9.53A5.55,5.55,0,0,1,56,328.36l-18.27.05Z"/><path class="cls-22" d="M273,235.2a1.38,1.38,0,0,1,1.09-.61c.76,0,1.52,0,2.28,0h46.33a25,25,0,0,1,2.6.08c.65.07.78.66.88,1.2l-17.46,30.06c-2.36,4.06-4.71,8.13-7.11,12.17-.54.91-.85,2-1.84,2.61a3.2,3.2,0,0,1-1.23-1.54q-12.65-21.66-25.28-43.33A4.53,4.53,0,0,1,273,235.2Z"/><path class="cls-4" d="M111.07,142a.78.78,0,0,1,.61-.71A.86.86,0,0,1,111.07,142Z"/><path class="cls-1" d="M139.88,92.71h-1.73a16,16,0,0,0-.77-1.8q-4.66-8.09-9.37-16.13-5.44-9.33-10.94-18.63c-1.49-2.54-3-5.07-4.46-7.62a1.65,1.65,0,0,0-1.5-1.06,1.67,1.67,0,0,1,.14-.53l1.14-.8a1.79,1.79,0,0,0,1.43.66h2.61q22.9,0,45.81,0c1.14,0,2.44-.44,3.36.7a6.13,6.13,0,0,1-1.1,2.69c-1.78,3.1-3.6,6.19-5.41,9.27-2.58,4.4-5.18,8.79-7.75,13.19-2.08,3.55-4.16,7.11-6.21,10.69C143.36,86.46,141.63,89.59,139.88,92.71Z"/><path class="cls-6" d="M303.12,93.28l0,.06q-12.7-21.81-25.4-43.63c-.54-.91-1.42-1.71-1.22-2.94,1.2,0,2.41.07,3.61.07H321.8c2.84,0,5.69,0,8.53-.07.1.23.21.45.31.67-2.73,4.59-5.49,9.16-8.19,13.76-5.9,10.06-11.76,20.15-17.66,30.21C304.37,92.14,304.16,93.09,303.12,93.28Z"/><path class="cls-6" d="M247.64,93.31c-.75,0-1.51.12-2.27.12h-49c-.65,0-1.31-.07-2-.1.59-2.74,2.5-4.8,3.75-7.2,1.16-2.22,2.52-4.32,3.78-6.48q2.72-4.66,5.42-9.32l3.79-6.47c1.88-3.19,3.7-6.41,5.64-9.56,1.09-1.76,1.76-3.76,3.13-5.35a9.1,9.1,0,0,1,.78-1,.73.73,0,0,1,1.14.1c1.48,2.41,3.06,4.77,4.36,7.28,2.56,4.93,5.61,9.57,8.42,14.36,1.37,2.35,2.62,4.77,4,7.11,1.7,2.91,3.51,5.76,5.21,8.68,1.26,2.16,2.45,4.36,3.62,6.57A3.61,3.61,0,0,1,247.64,93.31Z"/><path class="cls-1" d="M330.35,140.66H276.47a3.55,3.55,0,0,1,.88-2.06l26-44.57h50.1c.54,0,1.09,0,1.63,0,2.47.06,3.14-.55,4.9,2.68,3.69,6.79,7.7,13.39,11.61,20.06,2.48,4.22,5,8.41,7.49,12.63q2.66,4.5,5.25,9a8.43,8.43,0,0,1,.51,1.54c-.37.21-.72.56-1.1.6a20.84,20.84,0,0,1-2.62.07Z"/><path class="cls-6" d="M84.77,92.52c0,1.16.84,2,1.38,2.9Q98,115.73,109.82,136c.44.75.84,1.52,1.26,2.28A1.39,1.39,0,0,1,110,139c-.65,0-1.31.05-2,.05H58.92c-.55,0-1.09,0-1.64-.05l-.16-.64L81.3,96.89c.71-1.22,1.45-2.43,2.14-3.66A1.28,1.28,0,0,1,84.77,92.52Z"/><path class="cls-1" d="M326.59,233.75c-.76.05-1.52.12-2.28.12H275.36c-.65,0-1.3-.06-1.95-.1.58-2.74,2.49-4.8,3.75-7.2,1.16-2.21,2.52-4.32,3.78-6.48,1.81-3.1,3.6-6.21,5.41-9.32,1.26-2.16,2.53-4.31,3.8-6.47,1.87-3.19,3.69-6.41,5.64-9.56,1.09-1.76,1.75-3.76,3.12-5.35a10.44,10.44,0,0,1,.78-1,.72.72,0,0,1,1.14.1c1.49,2.41,3.06,4.77,4.36,7.28,2.57,4.93,5.61,9.57,8.42,14.36,1.37,2.35,2.63,4.77,4,7.11,1.71,2.91,3.51,5.77,5.21,8.68,1.26,2.16,2.45,4.36,3.62,6.57A3.61,3.61,0,0,1,326.59,233.75Z"/><path class="cls-1" d="M1289.07,95.19a4.42,4.42,0,0,1-4.6-2.77c-.09-.19-.2-.39-.31-.58-2.6-4.53-5.19-9.07-7.82-13.58-3.51-6-7.08-12-10.6-18-1.71-2.91-3.32-5.88-5.09-8.75-.54-.88-.91-2-2.12-2.35-.1-.23-.2-.45-.31-.67-1-1-2.25-.6-3.39-.6q-23.5,0-47,0a19.19,19.19,0,0,0-2.28,0,3.83,3.83,0,0,0-1.12.57c-.21,1.23.68,2,1.21,2.94q12.69,21.83,25.4,43.63c-1.19.07-2.38.2-3.57.2q-24.18,0-48.35,0c-1.19,0-2.38-.15-3.57-.23a3.61,3.61,0,0,0-.15-1.29c-1.17-2.21-2.36-4.42-3.62-6.58-1.7-2.91-3.5-5.76-5.21-8.67-1.37-2.35-2.62-4.77-4-7.11-2.81-4.79-5.85-9.43-8.42-14.37-1.3-2.5-2.87-4.87-4.36-7.27a.72.72,0,0,0-1.14-.1,11.59,11.59,0,0,0-.78,1c-1.37,1.6-2,3.6-3.12,5.36-2,3.14-3.77,6.37-5.64,9.56q-1.9,3.23-3.8,6.47c-1.81,3.1-3.6,6.21-5.41,9.31-1.26,2.16-2.62,4.27-3.78,6.49-1.26,2.39-3.17,4.45-3.75,7.2a1.29,1.29,0,0,1-.54.15l-.68-.09c-.47-2.19-1.9-3.89-3-5.76q-5.25-9.19-10.57-18.35-4.33-7.45-8.72-14.9c-1.15-2-2.36-3.89-3.53-5.85a1.73,1.73,0,0,0-1.85-1c-.93-1.15-2.22-.7-3.36-.7q-22.91,0-45.81,0h-2.62a1.77,1.77,0,0,1-1.42-.66,6.26,6.26,0,0,1,1.08-2.7c1.85-3.2,3.73-6.36,5.6-9.54q3.72-6.32,7.42-12.62c2.19-3.74,4.38-7.49,6.54-11.25,1.41-2.45,2.76-4.92,4.11-7.4a4.89,4.89,0,0,0,.87-3.08h2c-.29,1.68.74,2.92,1.46,4.23,1.32,2.38,2.75,4.7,4.12,7,2.87,4.88,5.75,9.76,8.6,14.65,2.68,4.61,5.32,9.25,8,13.86,1,1.79,2.17,3.52,3.23,5.3a1.49,1.49,0,0,0,1.24.91c.13.54.28,1.11.93,1.18.87.08,1.75.09,2.62.09h48.21a19.48,19.48,0,0,0,2.29-.08c.26,0,.5-.35.75-.53a12.6,12.6,0,0,0,.74-1.06q12.71-21.72,25.37-43.46A9.43,9.43,0,0,0,1176,1.9l.83-.65h.66c-.08,2.23,1.27,3.92,2.26,5.7,1.9,3.43,4,6.74,6,10.12,2.34,4,4.6,8.12,7,12.16s4.77,8,7.15,12.07c1,1.68,1.89,3.42,2.94,5.06.69,1.08,1.54,1,2.37,0,1.35-1.61,2.07-3.59,3.14-5.36,2.61-4.29,5.13-8.62,7.66-13,2-3.49,4-7,6-10.5,2.48-4.24,5-8.43,7.5-12.66a5.92,5.92,0,0,0,1.22-3.67h55.79a6.73,6.73,0,0,0,1.21,3q3.7,6.53,7.49,13,5.43,9.3,10.91,18.57c2.15,3.65,4.13,7.33,6.27,11,0,.68,0,2,0,3.15"/><path class="cls-11" d="M1312.34,241.67c-2,3.48-10.19,14.31-12.21,17.8-2.52,4.33-5.06,8.65-7.58,13-1.32,2.26-2.63,4.52-4,6.77-.51.84-1,1.66-1.63,2.45a1,1,0,0,1-1.67,0c-1.3-2-2.57-4-3.79-6.1-2.7-4.6-5.35-9.23-8-13.85q-3.1-5.37-6.23-10.73-3.88-6.63-7.79-13.24c-.52-.9-.24-1.4.85-1.45.87,0,1.75,0,2.62,0q22.95,0,45.9,0c1,0,2,0,3-.09.67,0,.63-.94.27-1.55-1.37-2.36-2.35-4.64-3.73-7q-4.21-7.19-8.41-14.39c-1.76-3-3.49-6-5.23-9.05-2.29-4-4.77-7.83-6.81-11.91-1.07-2.15-2.4-2.71-4.62-2.67-6,.12-12,0-18,0q-15.07,0-30.16,0c-1,0-2.22.37-3.07-.65a7.71,7.71,0,0,1,.5-1.54c1.8-3.11,3.63-6.21,5.45-9.31q3.81-6.48,7.61-13c2.09-3.57,4.16-7.16,6.24-10.74,1.81-3.11,3.64-6.2,5.43-9.32a5.34,5.34,0,0,0,1-2.72H1309c.88,0,2.45,0,3.31-.06"/><path class="cls-1" d="M1039.1,235.56a1.41,1.41,0,0,0,1.12-.57c1.36-2.23,2.79-4.43,4-6.73,2.88-5.26,6-10.38,9.07-15.52,3.64-6.08,7.06-12.29,10.59-18.43.71-1.23,1.48-2.42,2.25-3.6a1,1,0,0,1,1.45,0c.67,1,1.34,2,1.94,3,2.67,4.63,5.31,9.27,8,13.89,2.41,4.15,4.87,8.26,7.29,12.4,2.09,3.58,4.13,7.18,6.24,10.74.83,1.4,1.76,2.75,2.7,4.08a.79.79,0,0,0,1.37-.08c.6-.91,1.21-1.81,1.74-2.77,2.78-5.06,5.72-10,8.74-15,2.06-3.34,3.89-6.82,5.84-10.23,2.66-4.63,5.23-9.32,8-13.86,2.13-3.48,2.33-3.32,4.44,0s3.89,6.81,5.86,10.2c2.51,4.34,5.08,8.65,7.61,13,2,3.48,4,7,6.06,10.46,1,1.79,2.13,3.56,3.17,5.35.55.94,1.08,1.89,1.55,2.87.37.76,0,1.3-.77,1.35-1,.05-2,0-3,0H1043.4l-4.26,0-.13,0Z"/><path class="cls-1" d="M1231,95l.24.74-26,44.57c-.38.65-.94,1.23-.88,2.06l0-.05a3.41,3.41,0,0,1-1.52-1.64q-9.2-15.8-18.42-31.58Q1180.94,103,1177.4,97c-.57-1-.59-1-1.87.1-.1-.54-.23-1.13-.88-1.2a25,25,0,0,0-2.6-.08h-46.33c-.76,0-1.52,0-2.28,0a1.38,1.38,0,0,0-1.09.61l-.63-.68a2.63,2.63,0,0,0,.1-.56,1.29,1.29,0,0,0,.54-.15c.65,0,1.3.09,2,.09q24.48,0,49,0c.76,0,1.52-.08,2.28-.12,1.19.08,2.38.23,3.57.23q24.18,0,48.35,0c1.19,0,2.38-.13,3.57-.2Z"/><path class="cls-4" d="M1121.82,95.2a2.63,2.63,0,0,1-.1.56h-50q-1.3,0-2.61,0a1.75,1.75,0,0,0-1.39.73c-.58-.38-1.13-.66-1.6.18q-1.28,2.27-2.6,4.52L1051,123c-3.17,5.45-6.31,10.92-9.55,16.34-.56.94-.82,2.36-2.37,2.39-.42-.76-.82-1.54-1.26-2.29q-11.83-20.3-23.68-40.6c-.53-.93-1.32-1.75-1.37-2.91l0-.68c1.31,0,2.61-.08,3.92-.08H1062c.87,0,1.74,0,2.61,0a1.86,1.86,0,0,0,1.42-.69h1.74c1,1.08,2.23.68,3.38.69q25,0,50,0Z"/><path class="cls-16" d="M1149.17,283.48h-22.61c-.65,0-1.31,0-2,0-2.4.1-2.58-.92-1.47-2.81,3.37-5.72,6.79-11.41,10.15-17.14,2.64-4.51,5.21-9.06,7.83-13.59,2.29-3.95,4.61-7.9,6.92-11.84a2.53,2.53,0,0,1,.61-.76.72.72,0,0,1,1.13.1c.83,1.28,1.61,2.59,2.38,3.91,2.87,4.88,5.75,9.75,8.59,14.65,2,3.48,4,7,6,10.5,2.46,4.24,5,8.45,7.45,12.67.33.56.7,1.1,1,1.68,1.23,2.34,1.09,2.61-1.44,2.62Z"/><path class="cls-5" d="M1258.24,142.37a5.34,5.34,0,0,1-1,2.72c-1.79,3.12-3.62,6.21-5.43,9.32-2.08,3.58-4.15,7.17-6.24,10.74q-3.8,6.49-7.61,13c-1.82,3.1-3.65,6.2-5.45,9.31a7.71,7.71,0,0,0-.5,1.54,1.75,1.75,0,0,1-1.53-1c-1.26-2.16-2.57-4.3-3.83-6.46q-7.77-13.25-15.53-26.5c-2-3.39-3.9-6.81-5.82-10.23a4.33,4.33,0,0,1-.87-2.43l0,.05Z"/><path class="cls-23" d="M1176.4,188.64a8.11,8.11,0,0,1-2.07-2.79c-3.57-6.12-7-12.31-10.59-18.43-2.47-4.24-5-8.42-7.55-12.63-1.72-2.91-3.39-5.85-5.08-8.78a15.46,15.46,0,0,1-.73-1.47c-.66-1.51-.35-2.08,1.19-2.15.77,0,1.53,0,2.3,0h45.29c.76,0,1.53,0,2.3,0,1.54.08,1.87.66,1.18,2.16-.41.89-.9,1.75-1.39,2.6q-3.11,5.37-6.23,10.75c-1.6,2.73-3.22,5.44-4.82,8.16q-1.92,3.24-3.82,6.48c-1.81,3.11-3.61,6.23-5.42,9.33-1.16,2-2.34,3.94-3.5,5.91A1.64,1.64,0,0,1,1176.4,188.64Z"/><path class="cls-6" d="M1122.35,96.44a1.38,1.38,0,0,1,1.09-.61c.76,0,1.52,0,2.28,0h46.33a25,25,0,0,1,2.6.08c.65.07.78.66.88,1.2l-17.46,30.05c-2.36,4.07-4.7,8.14-7.11,12.18-.54.91-.85,2-1.84,2.61a3.2,3.2,0,0,1-1.23-1.54q-12.65-21.66-25.28-43.33A4.53,4.53,0,0,1,1122.35,96.44Z"/><path class="cls-6" d="M1231,95v.06q-12.71-21.81-25.4-43.63c-.53-.92-1.42-1.71-1.21-2.94,1.2,0,2.4.06,3.6.06h41.68c2.84,0,5.68,0,8.52-.06.11.22.21.44.31.67-2.73,4.58-5.48,9.15-8.18,13.76Q1241.5,78,1232.69,93.12C1232.26,93.84,1232.05,94.79,1231,95Z"/><path class="cls-1" d="M1175.54,95c-.76,0-1.52.12-2.28.12q-24.46,0-49,0c-.65,0-1.3-.06-2-.09.58-2.75,2.49-4.81,3.75-7.2,1.16-2.22,2.52-4.33,3.78-6.49,1.81-3.1,3.6-6.21,5.41-9.31q1.89-3.24,3.8-6.47c1.87-3.19,3.69-6.42,5.64-9.56,1.09-1.76,1.75-3.76,3.12-5.36a11.59,11.59,0,0,1,.78-1,.72.72,0,0,1,1.14.1c1.49,2.4,3.06,4.77,4.36,7.27,2.57,4.94,5.61,9.58,8.42,14.37,1.38,2.34,2.63,4.76,4,7.11,1.71,2.91,3.51,5.76,5.21,8.67,1.26,2.16,2.45,4.37,3.62,6.58A3.61,3.61,0,0,1,1175.54,95Z"/><path class="cls-5" d="M1067.78,94.41c1.74-3.11,3.47-6.24,5.25-9.34,2-3.58,4.12-7.14,6.2-10.7,2.58-4.4,5.18-8.78,7.76-13.18,1.81-3.09,3.63-6.17,5.41-9.28a6,6,0,0,0,1.1-2.68,1.73,1.73,0,0,1,1.85,1c1.17,2,2.38,3.89,3.53,5.85q4.38,7.44,8.72,14.9,5.31,9.16,10.57,18.35c1.07,1.87,2.5,3.57,3,5.76q-25,0-50,0C1070,95.09,1068.73,95.49,1067.78,94.41Z"/><path class="cls-1" d="M1312.33,142.31c-.86.1-2.43.06-3.31.06H1204.37c-.06-.83.5-1.41.88-2.06l26-44.57,50.09,0c.55,0,1.09,0,1.64,0,2.47.07,3.13-.54,4.89,2.69,3.69,6.79,7.71,13.39,11.61,20.06,2.48,4.22,5,8.41,7.5,12.63,1.77,3,3.62,6.28,5.35,9.31"/><path class="cls-14" d="M1286.58,471.43h-49.81c-1,0-2,0-3-.08a1,1,0,0,1-.87-1.42,10,10,0,0,1,.68-1.49q5.74-9.88,11.51-19.75c2.53-4.32,5.15-8.59,7.69-12.9,1.83-3.09,3.58-6.23,5.4-9.33a1.35,1.35,0,0,1,2.54,0c1.77,3,3.48,6,5.23,9,2.67,4.62,5.36,9.23,8,13.84,2,3.49,4,7,6.07,10.45q2.39,4.09,4.8,8.17a1.91,1.91,0,0,0,1.68.84Z"/><path class="cls-13" d="M1232.76,377.54l53.82,0v.65c-1.44,1.53-2.14,3.52-3.22,5.27-3.8,6.22-7.45,12.54-11.11,18.85-3.55,6.12-7,12.28-10.57,18.41a31.28,31.28,0,0,1-1.79,2.73.62.62,0,0,1-1.09,0c-.78-1.3-1.47-2.67-2.24-4q-4.18-7.19-8.4-14.38-3.63-6.19-7.25-12.41c-2.19-3.76-4.43-7.5-6.54-11.3-.57-1-1.59-1.85-1.65-3.15C1232.73,378,1232.74,377.78,1232.76,377.54Z"/><path class="cls-15" d="M1232.32,518H1255a20.8,20.8,0,0,1,2.62.1,1.21,1.21,0,0,1,1,1.91c-2.34,3.94-4.71,7.85-7,11.8-2,3.48-4,7-6,10.52-2.46,4.24-5,8.45-7.45,12.68-1.33,2.26-2.62,4.53-3.93,6.8-1.91,3.3-2.16,3.31-4,.19-4.11-6.94-8.27-13.85-12.34-20.81-3.57-6.12-7-12.3-10.57-18.45-.54-.94-1.16-1.84-1.67-2.8a1.22,1.22,0,0,1,.86-1.77A16.27,16.27,0,0,1,1209,518Z"/><path class="cls-15" d="M1258.52,329.36c.19.26.37.53.55.79a7.14,7.14,0,0,1-1.18,3c-1.72,3-3.48,6-5.23,9-2.13,3.66-4.25,7.33-6.39,11q-3.78,6.46-7.6,12.91-2.64,4.5-5.3,9a4.21,4.21,0,0,0-.61,2.49c0,.24,0,.47,0,.7h-1.16a1.54,1.54,0,0,0-.75-1.2,6.75,6.75,0,0,0-1.31-4c-2.49-4.22-5-8.39-7.53-12.61-2-3.47-4-7-6-10.5-2.46-4.23-5-8.44-7.45-12.66-1-1.79-2.09-3.57-3.1-5.37-.42-.74.08-1.51,1-1.57s2,0,3,0h44.88c1,0,2,0,3-.06A1.62,1.62,0,0,0,1258.52,329.36Z"/><path class="cls-12" d="M1150.1,377.57h-22.94c-.87,0-1.75,0-2.62,0-1.14-.07-1.62-.76-1.1-1.76,1-2,2.18-4,3.32-6,2.17-3.77,4.37-7.53,6.57-11.28,1.55-2.63,3.12-5.24,4.66-7.87,1.43-2.44,2.82-4.9,4.25-7.34q3.24-5.49,6.52-10.94a1.25,1.25,0,0,1,2.17-.05c.84,1.27,1.61,2.58,2.38,3.9q4.55,7.74,9.06,15.5c2.57,4.42,5.08,8.88,7.66,13.3,2,3.38,4,6.73,6,10.11a11.57,11.57,0,0,1,.58,1.17.82.82,0,0,1-.62,1.22c-.87.05-1.75.06-2.62.06Z"/><path class="cls-17" d="M1230.81,377a1.54,1.54,0,0,1,.75,1.2q-7.26,12.43-14.51,24.87-5.25,9.06-10.45,18.15a2.64,2.64,0,0,1-.15.29c-.53.81-.93,2.08-1.79,2.18-1.09.13-1.23-1.3-1.7-2.1-2.39-4-4.72-8.1-7.09-12.15-2.81-4.8-5.65-9.59-8.46-14.38q-4.47-7.62-8.92-15.25c-.11-.19-.2-.39-.3-.58-.61-1.17-.37-1.66.88-1.71.87,0,1.74,0,2.62,0h39a27.44,27.44,0,0,0,6.51-.43A15.91,15.91,0,0,1,1230.81,377Z"/><path class="cls-13" d="M1123.05,565.16a4.27,4.27,0,0,1,1-2.86c3.56-6.11,7.16-12.2,10.75-18.3,3.49-5.91,7-11.8,10.45-17.72,1.21-2.07,2.34-4.19,3.52-6.27.67-1.2,1.35-1.21,2.15-.06.25.36.43.75.65,1.13,2.92,5,5.86,9.94,8.76,14.93,2.57,4.42,5.1,8.87,7.67,13.3,2.78,4.81,5.57,9.6,8.36,14.41.63,1.08.36,1.5-1,1.56-.54,0-1.09,0-1.63,0h-48.16C1124.73,565.29,1123.89,565.21,1123.05,565.16Z"/><path class="cls-12" d="M1150.18,471.43h23.29a22.86,22.86,0,0,1,2.62.11.64.64,0,0,1,.51,1c-1.55,2.76-3.13,5.49-4.72,8.22q-4.2,7.2-8.41,14.39c-2.48,4.23-5,8.45-7.46,12.68-1.21,2.06-2.41,4.14-3.61,6.21-.22.38-.39.79-.62,1.16-1.81,2.88-2.24,2.83-4-.24-1.49-2.67-3.08-5.27-4.63-7.9-1.28-2.16-2.57-4.3-3.83-6.46-1.81-3.11-3.59-6.24-5.4-9.35-1.26-2.16-2.56-4.3-3.83-6.46q-2.91-4.93-5.79-9.86a16.31,16.31,0,0,1-1-2,1,1,0,0,1,1-1.37c.87-.06,1.75-.06,2.62-.06Z"/><path class="cls-13" d="M1123.27,284.22c0-.19,0-.39,0-.58l32,0,22.52,0c0,.24,0,.48,0,.72q-4.17,7.23-8.33,14.45c-1.2,2.07-2.45,4.12-3.65,6.19-1.75,3-3.47,6.05-5.22,9.07q-3.45,5.92-6.92,11.85c-.56.94-1.12,1.88-1.74,2.77-.74,1.07-1.57,1-2.27-.16-.17-.28-.29-.59-.46-.87-2.8-4.8-5.63-9.58-8.42-14.39-2-3.49-4-7-6-10.5-2.46-4.24-5-8.46-7.44-12.69-.66-1.13-1.33-2.26-1.92-3.42A4.89,4.89,0,0,0,1123.27,284.22Z"/><path class="cls-6" d="M602.58,46.86a1.37,1.37,0,0,1,1.09-.6c.76,0,1.52,0,2.28,0h46.33a25,25,0,0,1,2.6.08c.65.07.78.66.88,1.2L638.3,77.55c-2.36,4.06-4.71,8.14-7.11,12.18-.54.91-.85,2-1.84,2.61a3.25,3.25,0,0,1-1.23-1.54q-12.64-21.66-25.28-43.34A4,4,0,0,1,602.58,46.86Z"/><path class="cls-6" d="M436.53,48.85a1.4,1.4,0,0,1,1.08.63c.41.64.81,1.28,1.2,1.94q11.9,19.88,23.78,39.75a23.16,23.16,0,0,1,1.27,2.28c.28.59-.17,1-.58,1.37l-34.75.44c-4.7.06-9.4.14-14.1.15-1.06,0-2.18.31-3.19-.24a3.25,3.25,0,0,1,.69-1.84l24.21-43.95A6.55,6.55,0,0,1,436.53,48.85Z"/><path class="cls-1" d="M465.05,93.77c-.43-.63-.89-1.24-1.28-1.89l-25.13-42c-.33-.56-.61-1.15-.92-1.72,2.66-.91,5.41-.33,8.11-.48,2.49-.14,5-.06,7.5-.08l10.77-.14,7.51-.06c3.7,0,7.4-.12,11.1-.07,2.07,0,4.13-.42,6.2-.07a10.66,10.66,0,0,1,1.28.14.73.73,0,0,1,.51,1c-1.31,2.51-2.53,5.07-4,7.48-2.92,4.73-5.34,9.73-8,14.59-1.31,2.39-2.74,4.71-4.05,7.09-1.62,3-3.14,6-4.77,8.92-1.2,2.2-2.48,4.35-3.78,6.49C465.87,93.33,465.4,93.51,465.05,93.77Z"/><path class="cls-6" d="M222.66,48.67c0-.44,0-.87,0-1.31q17.55,0,35.09,0c6.23,0,12.45,0,18.68.07q.06.3.09.6c-1.82,3-3.69,5.89-5.44,8.89C267.52,63,264,69.18,260.46,75.31c-3.23,5.56-6.52,11.09-9.81,16.63a4.26,4.26,0,0,0-.51,1.87l-1.16.08Q236.2,72,223.42,50.11C223.14,49.64,222.91,49.15,222.66,48.67Z"/><path class="cls-1" d="M250.36,92.55a4.3,4.3,0,0,1,.51-1.88c3.29-5.53,6.58-11.06,9.81-16.62,3.57-6.13,7.06-12.31,10.64-18.43,1.75-3,3.62-5.93,5.44-8.89a2.92,2.92,0,0,1,1.31,1.4c5.17,8.85,10.41,17.65,15.5,26.54,3,5.3,6,10.61,9.24,15.81a5.53,5.53,0,0,1,.53,1.19.68.68,0,0,1-.57,1,12.75,12.75,0,0,1-2,.09q-24.07,0-48.17,0C251.88,92.72,251.12,92.61,250.36,92.55Z"/><path class="cls-6" d="M165.81,47.48c0-.43,0-.87,0-1.3q-17.55,0-35.09,0c-6.23,0-12.46,0-18.69.07l-.09.61c1.82,3,3.7,5.89,5.45,8.89C121,61.82,124.43,68,128,74.12c3.24,5.56,6.53,11.09,9.81,16.63a4.16,4.16,0,0,1,.51,1.87l1.17.09,25.56-43.78C165.32,48.46,165.56,48,165.81,47.48Z"/><path class="cls-1" d="M82.72,91.51a4.16,4.16,0,0,0-.51-1.87C78.93,84.1,75.64,78.57,72.4,73c-3.57-6.13-7.06-12.3-10.64-18.42-1.75-3-3.62-5.93-5.44-8.89A2.92,2.92,0,0,0,55,47.1c-5.17,8.84-10.41,17.65-15.5,26.54-3,5.29-6,10.61-9.24,15.8a5.84,5.84,0,0,0-.53,1.2.68.68,0,0,0,.57,1,11.65,11.65,0,0,0,2,.1H80.44C81.2,91.68,82,91.57,82.72,91.51Z"/><path class="cls-6" d="M83.26,93l0-1.3q-17.53,0-35.08,0c-6.23,0-12.46,0-18.69.08l-.09.6c1.82,3,3.7,5.89,5.45,8.89,3.58,6.12,7.06,12.3,10.63,18.43,3.24,5.56,6.53,11.09,9.81,16.62a4.17,4.17,0,0,1,.51,1.88l1.17.08L82.5,94.49C82.77,94,83,93.53,83.26,93Z"/><path class="cls-1" d="M55.85,138.57a4.16,4.16,0,0,0-.51-1.87c-3.28-5.53-6.57-11.06-9.81-16.63C42,114,38.47,107.77,34.89,101.65c-1.75-3-3.62-5.93-5.44-8.89a3,3,0,0,0-1.31,1.4C23,103,17.73,111.81,12.64,120.7c-3,5.3-6,10.61-9.24,15.81a5.53,5.53,0,0,0-.53,1.19.68.68,0,0,0,.57,1,12.81,12.81,0,0,0,2,.09H53.57C54.33,138.75,55.09,138.63,55.85,138.57Z"/><path class="cls-1" d="M301.6,95.21c0-.44,0-.87,0-1.31q-17.54,0-35.08,0c-6.23,0-12.46,0-18.69.07q-.06.3-.09.6c1.82,3,3.69,5.89,5.44,8.89,3.58,6.13,7.07,12.3,10.64,18.43,3.24,5.56,6.53,11.09,9.81,16.63a4.13,4.13,0,0,1,.51,1.87l1.17.08,25.56-43.78C301.12,96.18,301.35,95.69,301.6,95.21Z"/><path class="cls-6" d="M628.37,95.07c0-.43,0-.87,0-1.3q17.54,0,35.08,0c6.23,0,12.46,0,18.69.07,0,.2.07.41.09.61-1.82,3-3.69,5.89-5.44,8.89-3.58,6.12-7.07,12.29-10.64,18.42-3.24,5.56-6.53,11.09-9.81,16.63a4.16,4.16,0,0,0-.51,1.87l-1.17.09L629.12,96.52C628.85,96.05,628.62,95.55,628.37,95.07Z"/><path class="cls-6" d="M738.19,94.58c-2,3.49-4,7-6,10.47Q722,122.68,711.7,140.28l-1.29-.28a17.83,17.83,0,0,0-.84-2.11q-3-5.41-6.17-10.77c-2.48-4.23-5-8.42-7.48-12.66-3.5-6-7-12.07-10.44-18.12-.39-.68-.82-1.29-1.72-1.29,0-.33.07-.66.1-1a.59.59,0,0,0,.36-.33h50.52c1.1,0,2.19.05,3.28.07C738.08,94.07,738.13,94.32,738.19,94.58Z"/><path class="cls-6" d="M359.26,94.52c-.05,1.16-.84,2-1.37,2.91L334.21,138c-.44.75-.84,1.52-1.26,2.28A1.39,1.39,0,0,0,334,141c.66,0,1.31,0,2,0h49.11c.55,0,1.1,0,1.64,0,.05-.22.11-.43.16-.64L362.73,98.9c-.71-1.22-1.45-2.43-2.14-3.66A1.28,1.28,0,0,0,359.26,94.52Z"/><path class="cls-6" d="M358.58,95c0-.44,0-.87,0-1.31q17.55,0,35.09,0c6.23,0,12.46,0,18.68.08q.06.3.09.6c-1.82,3-3.69,5.89-5.44,8.89-3.58,6.13-7.07,12.3-10.64,18.43-3.23,5.56-6.52,11.09-9.81,16.63a4.26,4.26,0,0,0-.51,1.87l-1.16.08q-12.78-21.88-25.56-43.78C359.06,96,358.83,95.52,358.58,95Z"/><path class="cls-6" d="M300.87,189.45c0-.43,0-.87,0-1.3q17.55,0,35.09-.05c6.23,0,12.46.05,18.68.07,0,.2.07.41.09.61-1.82,3-3.69,5.89-5.44,8.89-3.58,6.12-7.07,12.29-10.64,18.42-3.23,5.56-6.52,11.09-9.81,16.63a4.29,4.29,0,0,0-.51,1.87l-1.16.09q-12.78-21.9-25.56-43.78C301.35,190.43,301.12,189.93,300.87,189.45Z"/><path class="cls-6" d="M1012.5,188H962.06c-.66,0-1.31,0-2,0-1.23-.06-1.49-.56-.85-1.72,1-1.81,2-3.61,3.07-5.4q4.28-7.33,8.59-14.66l7.26-12.41q3.14-5.35,6.28-10.72c.51-.87,1.19-.93,1.75-.05.76,1.19,1.38,2.46,2.1,3.69q4.51,7.76,9.07,15.51l6.93,11.85,6.59,11.29c.43.75.72,1.61,1.62,2Z"/><path class="cls-6" d="M1230.69,95.63a1.39,1.39,0,0,1,1.09-.6c.76,0,1.53,0,2.29,0h46.32a25.2,25.2,0,0,1,2.61.08c.65.07.77.66.87,1.2l-17.45,30.05c-2.37,4.06-4.71,8.14-7.11,12.18-.54.91-.86,2-1.84,2.61a3.27,3.27,0,0,1-1.24-1.54q-12.64-21.66-25.28-43.34A5.42,5.42,0,0,1,1230.69,95.63Z"/><path class="cls-6" d="M1312.34,95.54c-.84,0-28.39.31-29.07-.49l1.65-2.75c8.42-14.58,17-28.09,25.41-42.65,1.08-1.92,1.38-2.56,2-3.55,0,1.07,0,1,0,2.15"/><path class="cls-5" d="M1312.34,235.5c-1.26-2.17-2.15-4.19-3.42-6.35q-7.77-13.25-15.53-26.5c-2-3.39-3.9-6.81-5.82-10.23a4.33,4.33,0,0,1-.87-2.43h25.82"/><path class="cls-6" d="M1258.53,143.23a1.39,1.39,0,0,1,1.1-.61c.76,0,1.52,0,2.28,0h46.32a25.2,25.2,0,0,1,2.61.08c.65.07.77.66.88,1.2-5.82,10-10.61,21.26-16.44,31.28-2.36,4.06-4.8,8.43-7.2,12.46-.54.91-.85,2-1.84,2.62a3.3,3.3,0,0,1-1.23-1.54c-8.43-14.45-17.79-30.41-26.22-44.85C1258.69,143.64,1258.62,143.43,1258.53,143.23Z"/><path class="cls-22" d="M248.5,94.09a1.35,1.35,0,0,1,1.09-.61c.76,0,1.52,0,2.28,0H298.2a25,25,0,0,1,2.6.08c.65.07.78.66.88,1.2l-17.46,30.05c-2.36,4.07-4.71,8.14-7.11,12.18-.54.91-.85,2-1.84,2.61A3.2,3.2,0,0,1,274,138L248.76,94.69A4.53,4.53,0,0,1,248.5,94.09Z"/><path class="cls-14" d="M382.41,330.11a1.38,1.38,0,0,1,1.09-.61c.76,0,1.52,0,2.28,0h46.33a25.27,25.27,0,0,1,2.61.07c.65.07.77.66.87,1.21L418.13,360.8c-2.36,4.06-4.7,8.14-7.11,12.17-.54.91-.85,2-1.84,2.62a3.3,3.3,0,0,1-1.23-1.54q-12.65-21.68-25.28-43.34A6.39,6.39,0,0,1,382.41,330.11Z"/><path class="cls-12" d="M169.78,423.83H193.4"/><path class="cls-14" d="M83.38,611.55H60.09a20.65,20.65,0,0,1-2.61-.13.64.64,0,0,1-.46-1c1.55-2.75,3.15-5.48,4.74-8.21q4.2-7.2,8.4-14.39c1.55-2.63,3.13-5.24,4.67-7.87,1.44-2.44,2.81-4.92,4.25-7.36,1.28-2.15,2.59-4.29,4-6.39.49-.76,1.36-.65,1.84.16q2.49,4.23,4.94,8.47l8,13.87q3.18,5.5,6.39,11l5.62,9.59a7.1,7.1,0,0,1,.46.86,1,1,0,0,1-.69,1.28c-.87.07-1.75.1-2.62.1Z"/><path class="cls-12" d="M139,330h23.29a25,25,0,0,1,2.6.15.57.57,0,0,1,.47.73,5.34,5.34,0,0,1-.62,1.5c-3.13,5-6,10.1-8.92,15.23-2.46,4.37-5.17,8.59-7.7,12.91-2.7,4.61-5.32,9.26-8,13.89a8.79,8.79,0,0,1-.51.83,1,1,0,0,1-1.68.1c-.7-1-1.37-2-2-3q-6.42-10.83-12.8-21.67c-2.64-4.51-5.19-9.08-7.83-13.59a45.72,45.72,0,0,1-3.13-5.75c-.31-.75,0-1.25.87-1.3s1.75,0,2.62,0Z"/><path class="cls-12" d="M111.12,658.81h23.62c.76,0,1.53,0,2.29.07a.79.79,0,0,1,.65,1.2,17.84,17.84,0,0,1-1,2.07c-2.51,4.21-5.08,8.39-7.56,12.61-2,3.48-3.95,7-6,10.52-2.53,4.33-5.13,8.61-7.69,12.92a54.27,54.27,0,0,1-3.08,5.39c-.95,1.25-1.81,1.32-2.46,0-1.41-2.84-3.15-5.47-4.76-8.19C101.49,689.21,98,683,94.27,676.77c-3.12-5.24-6-10.61-9.27-15.78a5.57,5.57,0,0,1-.42-.89.82.82,0,0,1,.63-1.22c.87-.06,1.74-.07,2.62-.07Z"/><path class="cls-1" d="M1066.86,95.21c1-.25,1.34.45,1.73,1.12l6.93,11.9q8.67,14.86,17.34,29.74c.55.94,1,1.92,1.52,2.88l-.12,1.46c-3.32,5.75-6.62,11.52-10,17.25-5,8.46-10,16.89-14.89,25.35a8.46,8.46,0,0,0-1.45,3.27,3.49,3.49,0,0,0,.79,2.42q7.93,13.56,15.86,27.13c2.75,4.71,5.48,9.43,8.23,14.15.55.94,1.12,1.87,1.69,2.8a2.35,2.35,0,0,0,1.64,1c2.51,4.45,5,8.92,7.53,13.34,2.82,4.9,5.72,9.76,8.58,14.64s5.85,9.93,8.73,14.92a7.5,7.5,0,0,1,1.49,3.57l-55.22,0c-.44-.87-.84-1.76-1.33-2.6q-11.49-19.74-23-39.45c-.92-1.57-1.55-3.37-3-4.61-1.08-.8-2.33-.44-3.5-.44q-23.3,0-46.59,0c-1,0-2,0-2.95-.05a.75.75,0,0,1-.61-1.17c.68-1.25,1.39-2.48,2.11-3.71q8.35-14.29,16.71-28.59c2.43-4.15,4.8-8.34,7.19-12.51l.66-.67H1063a21.89,21.89,0,0,0,2.92-.16.8.8,0,0,0,.61-1,4.65,4.65,0,0,0-.56-1.51c-1.7-2.67-3.22-5.43-4.79-8.17-3.39-6-6.92-11.83-10.43-17.72-3.34-5.6-6.37-11.39-10-16.84a4.41,4.41,0,0,1-.38-1.23c0-.24,0-.47,0-.71q10.26-17.61,20.51-35.22C1062.9,102.2,1064.87,98.7,1066.86,95.21Z"/><path class="cls-1" d="M1366.57,227.34a16.28,16.28,0,0,1-.1-3.11c-.24-5.16-.68-10.63,0-15.8,0-1.67,0-3.33.12-5a4.07,4.07,0,0,1-.45-2.15,16.51,16.51,0,0,0,.11-2.41c-.08-1.14-.23-2.16-.22-3.31,0-.94.09-2,.16-2.94a6.79,6.79,0,0,1,0-.9,4.83,4.83,0,0,1-.14-1.15c0-.06,0-.13,0-.19H1344.4c-.87,0-1.75,0-2.62-.09-.65-.07-.8-.64-.93-1.18a1.51,1.51,0,0,1-1.24-.92c-1.06-1.77-2.19-3.5-3.23-5.29-2.68-4.61-5.32-9.25-8-13.86-2.85-4.89-5.73-9.77-8.6-14.65-1.37-2.34-2.8-4.66-4.12-7-.72-1.31-1.75-2.56-1.46-4.23h-2a4.94,4.94,0,0,1-.86,3.08c-1.36,2.48-2.71,4.95-4.12,7.4-2.15,3.76-4.35,7.5-6.54,11.25q-3.69,6.31-7.42,12.62c-1.87,3.18-3.75,6.34-5.59,9.54a6.11,6.11,0,0,0-1.09,2.69,1.71,1.71,0,0,0,1.42.66l2.62,0q22.9,0,45.81,0c1.14,0,2.43-.45,3.36.69a1.73,1.73,0,0,1,1.85,1c1.17,2,2.38,3.89,3.53,5.85q4.38,7.44,8.72,14.9,5.31,9.17,10.57,18.34c.54.95,1.18,1.86,1.73,2.8A31.65,31.65,0,0,1,1366.57,227.34Z"/><path class="cls-5" d="M164.2,139.06a5.32,5.32,0,0,1-1,2.72c-1.79,3.12-3.62,6.21-5.43,9.32l-6.23,10.75q-3.8,6.48-7.62,13c-1.82,3.1-3.65,6.2-5.45,9.31a7.71,7.71,0,0,0-.5,1.54,1.75,1.75,0,0,1-1.53-1c-1.26-2.16-2.56-4.3-3.83-6.46q-7.77-13.24-15.53-26.5c-2-3.39-3.9-6.81-5.82-10.23a4.4,4.4,0,0,1-.87-2.43l0,.05Z"/><path class="cls-6" d="M164.49,139.92a1.38,1.38,0,0,1,1.09-.61c.76,0,1.52,0,2.28,0h46.33a25,25,0,0,1,2.6.08c.65.07.78.66.88,1.2-5.82,10-10.61,21.27-16.43,31.28-2.36,4.07-4.8,8.43-7.21,12.47-.54.9-.85,2-1.84,2.61a3.3,3.3,0,0,1-1.23-1.54c-8.43-14.45-17.79-30.41-26.21-44.85A4.53,4.53,0,0,1,164.49,139.92Z"/><path class="cls-6" d="M1340.62,95.72h-52.23c-.67,0-1.35,0-2,0-1.28-.07-1.55-.61-.88-1.87q1.55-3,3.17-5.88L1297.54,72l7.53-13.5q3.24-5.84,6.49-11.66c.54-1,1.24-1,1.82-.06.78,1.29,1.43,2.68,2.17,4l9.39,16.89,7.18,12.88,6.82,12.29c.45.81.75,1.75,1.68,2.14Z"/><path class="cls-6" d="M1286.28,191.06a1.44,1.44,0,0,1,1.1-.61l2.28,0H1336a22.69,22.69,0,0,1,2.61.08c.65.06.77.66.88,1.2-5.82,10-10.62,21.26-16.44,31.28-2.36,4.06-4.8,8.42-7.2,12.46-.54.91-.85,2-1.84,2.61a3.2,3.2,0,0,1-1.23-1.54c-8.44-14.44-17.79-30.4-26.22-44.85C1286.44,191.47,1286.37,191.26,1286.28,191.06Z"/><path class="cls-1" d="M1366.37,95.45c.15-15.5.16-31,.15-46.5h-.16l-26,44.57c-.38.65-.94,1.22-.88,2.06h26.9Z"/><path class="cls-15" d="M194.44,234.69H171.83c-.88,0-1.75,0-2.62,0-1.1.06-1.56.87-1,1.79,3.26,5.54,6.55,11,9.79,16.59,2,3.48,4,7,6,10.51q4.5,7.77,9.06,15.5a8.85,8.85,0,0,0,.69,1.1,1,1,0,0,0,1.45,0c.77-1.19,1.53-2.38,2.25-3.6,3-5.16,6.08-10.32,9.07-15.5,3.54-6.13,7-12.29,10.55-18.42.87-1.51,1.82-3,2.72-4.46a16.87,16.87,0,0,0,1.06-2,1,1,0,0,0-.82-1.45c-.87-.07-1.75-.07-2.62-.07Z"/><path class="cls-6" d="M1067.17,282.39h-50.45c-.65,0-1.31,0-2,0-1.24-.06-1.5-.56-.86-1.72,1-1.81,2-3.61,3.07-5.4l8.59-14.66,7.26-12.41q3.14-5.35,6.28-10.72c.51-.87,1.19-.93,1.75-.05.76,1.19,1.39,2.46,2.1,3.69l9.07,15.51,6.94,11.85,6.58,11.29c.43.75.73,1.61,1.63,2Z"/><path class="cls-6" d="M1095.21,234.88l-50.44,0c-.66,0-1.32,0-2,0-1.23-.06-1.49-.56-.85-1.72q1.5-2.72,3.07-5.4,4.27-7.33,8.58-14.66,3.64-6.21,7.27-12.42c2.09-3.57,4.17-7.14,6.27-10.71.52-.88,1.2-.93,1.75-.06.76,1.19,1.39,2.47,2.1,3.69q4.53,7.77,9.08,15.52L1087,221q3.3,5.64,6.58,11.29c.44.75.73,1.61,1.63,2Z"/><path class="cls-22" d="M574,189.13a26.8,26.8,0,0,1,3,4.63c2.77,4.67,5.48,9.38,8.2,14.08,2,3.47,4,7,6,10.43q3.86,6.61,7.77,13.2a6.84,6.84,0,0,1,1.3,2.94,4,4,0,0,1-1.11.6,11.61,11.61,0,0,1-2,.06H546.47c0-.19,0-.39,0-.59l5.86-10.15,6.2-10.72q3.69-6.34,7.39-12.66c2-3.37,4-6.72,6-10.11C572.4,189.94,572.88,189.14,574,189.13Z"/><path class="cls-1" d="M1366.28,120.2c0-8.25,0-16.5.09-24.75v-.39h-26.6l-26,44.57c-.38.65-.94,1.22-.88,2.06h53.89l.09-8.17C1366.59,129.08,1366.28,124.65,1366.28,120.2Z"/><path class="cls-14" d="M1366.52,48.82l-.31.44a3.32,3.32,0,0,1-.89,1.68.77.77,0,0,1-.5.79.73.73,0,0,1-.24.52.66.66,0,0,1-.47.71l-.72,1.26a1.28,1.28,0,0,1-.68,1.19l0,.1a.76.76,0,0,1-.49.77,7.71,7.71,0,0,1-1.44,2.54,1.21,1.21,0,0,1-.66,1.13l-.07.15a.69.69,0,0,1-.48.74l-.72,1.26a1.3,1.3,0,0,1-.68,1.19l0,.1a.77.77,0,0,1-.5.77,7.42,7.42,0,0,1-1.44,2.53.8.8,0,0,1-.5.8.72.72,0,0,1-.24.51.66.66,0,0,1-.47.71L1354.2,70a1.27,1.27,0,0,1-.68,1.18l0,.11a.73.73,0,0,1-.5.76,7.51,7.51,0,0,1-1.43,2.54.78.78,0,0,1-.51.79.73.73,0,0,1-.24.52.64.64,0,0,1-.46.71l-.72,1.26a1.3,1.3,0,0,1-.68,1.19l0,.1a.77.77,0,0,1-.5.77,7.24,7.24,0,0,1-1.44,2.53.8.8,0,0,1-.5.8.75.75,0,0,1-.24.52.66.66,0,0,1-.47.71l-.72,1.26a1.28,1.28,0,0,1-.68,1.19l0,.1a.75.75,0,0,1-.49.77,7.66,7.66,0,0,1-1.44,2.53,1.22,1.22,0,0,1-.66,1.14l-.07.14a.68.68,0,0,1-.48.74,4.22,4.22,0,0,1-1.21,2,1.18,1.18,0,0,0,1,.69c.76,0,1.53,0,2.29,0h23.13C1366.52,79.63,1366.53,64.23,1366.52,48.82Z"/><path class="cls-6" d="M792.53,93.77H742.09c-.66,0-1.32,0-2,0-1.23-.06-1.49-.56-.85-1.72q1.5-2.72,3.07-5.4,4.27-7.33,8.58-14.66l7.27-12.41c2.09-3.58,4.17-7.15,6.27-10.72.52-.88,1.2-.93,1.75-.06.76,1.2,1.39,2.47,2.1,3.69q4.53,7.77,9.07,15.52,3.48,5.93,6.94,11.85,3.3,5.64,6.58,11.29c.44.75.73,1.61,1.63,2Z"/></svg>